<svg width="1607" height="246" viewBox="0 0 1607 246" fill="none" xmlns="http://www.w3.org/2000/svg">
<rect x="1607" y="246" width="1607" height="246" transform="rotate(-180 1607 246)" fill="black" fill-opacity="0.2"/>
<g opacity="0.3">
<path d="M45.6666 34.5736L41 37.2402L37 35.2402L32.3333 31.9069L29.6666 27.2402L28.3333 21.2402L31.6666 15.9069H37L41 17.9069L43.6666 16.5736L47.6666 15.2402L51.6666 17.9069L53.6666 21.9069L52.3333 27.9069L45.6666 34.5736Z" fill="#0099FF" fill-opacity="0.4"/>
<path d="M41 18.4501L40.3245 19.1003C40.5013 19.2839 40.7451 19.3876 41 19.3876C41.2549 19.3876 41.4987 19.2839 41.6755 19.1003L41 18.4501ZM37.7826 34.4767C35.888 32.9832 33.8163 31.5247 32.1729 29.6741C30.5615 27.8597 29.4375 25.7424 29.4375 22.9957H27.5625C27.5625 26.3277 28.9506 28.8694 30.7709 30.9191C32.559 32.9326 34.8385 34.5434 36.6218 35.9492L37.7826 34.4767ZM29.4375 22.9957C29.4375 20.3071 30.9567 18.0525 33.0304 17.1046C35.0451 16.1837 37.7521 16.4276 40.3245 19.1003L41.6755 17.8C38.6231 14.6288 35.0801 14.1061 32.2509 15.3993C29.4809 16.6655 27.5625 19.6056 27.5625 22.9957H29.4375ZM36.6218 35.9492C37.2621 36.4539 37.9494 36.9922 38.646 37.3993C39.3424 37.8062 40.137 38.1368 41 38.1368V36.2618C40.613 36.2618 40.1576 36.1109 39.592 35.7804C39.0266 35.4501 38.4401 34.9951 37.7826 34.4767L36.6218 35.9492ZM45.3783 35.9492C47.1615 34.5434 49.441 32.9326 51.2291 30.9191C53.0494 28.8694 54.4375 26.3277 54.4375 22.9957H52.5625C52.5625 25.7424 51.4385 27.8597 49.8271 29.6741C48.1836 31.5247 46.112 32.9832 44.2175 34.4767L45.3783 35.9492ZM54.4375 22.9957C54.4375 19.6056 52.5191 16.6655 49.749 15.3993C46.9199 14.1061 43.3769 14.6288 40.3245 17.8L41.6755 19.1003C44.2479 16.4276 46.9549 16.1837 48.9695 17.1046C51.0432 18.0525 52.5625 20.3071 52.5625 22.9957H54.4375ZM44.2175 34.4767C43.5599 34.9951 42.9734 35.4501 42.408 35.7804C41.8424 36.1109 41.387 36.2618 41 36.2618V38.1368C41.863 38.1368 42.6576 37.8062 43.354 37.3993C44.0506 36.9922 44.7379 36.4539 45.3783 35.9492L44.2175 34.4767Z" fill="#84C8FF" fill-opacity="0.6"/>
<path d="M168.667 34.5736L164 37.2402L160 35.2402L155.333 31.9069L152.667 27.2402L151.333 21.2402L154.667 15.9069H160L164 17.9069L166.667 16.5736L170.667 15.2402L174.667 17.9069L176.667 21.9069L175.333 27.9069L168.667 34.5736Z" fill="#0099FF" fill-opacity="0.4"/>
<path d="M164 18.4501L163.325 19.1003C163.501 19.2839 163.745 19.3876 164 19.3876C164.255 19.3876 164.499 19.2839 164.675 19.1003L164 18.4501ZM160.783 34.4767C158.888 32.9832 156.816 31.5247 155.173 29.6741C153.562 27.8597 152.438 25.7424 152.438 22.9957H150.562C150.562 26.3277 151.951 28.8694 153.771 30.9191C155.559 32.9326 157.838 34.5434 159.622 35.9492L160.783 34.4767ZM152.438 22.9957C152.438 20.3071 153.957 18.0525 156.03 17.1046C158.045 16.1837 160.752 16.4276 163.325 19.1003L164.675 17.8C161.623 14.6288 158.08 14.1061 155.251 15.3993C152.481 16.6655 150.562 19.6056 150.562 22.9957H152.438ZM159.622 35.9492C160.262 36.4539 160.949 36.9922 161.646 37.3993C162.342 37.8062 163.137 38.1368 164 38.1368V36.2618C163.613 36.2618 163.158 36.1109 162.592 35.7804C162.027 35.4501 161.44 34.9951 160.783 34.4767L159.622 35.9492ZM168.378 35.9492C170.162 34.5434 172.441 32.9326 174.229 30.9191C176.049 28.8694 177.438 26.3277 177.438 22.9957H175.562C175.562 25.7424 174.439 27.8597 172.827 29.6741C171.184 31.5247 169.112 32.9832 167.218 34.4767L168.378 35.9492ZM177.438 22.9957C177.438 19.6056 175.519 16.6655 172.749 15.3993C169.92 14.1061 166.377 14.6288 163.325 17.8L164.675 19.1003C167.248 16.4276 169.955 16.1837 171.969 17.1046C174.043 18.0525 175.562 20.3071 175.562 22.9957H177.438ZM167.218 34.4767C166.56 34.9951 165.973 35.4501 165.408 35.7804C164.842 36.1109 164.387 36.2618 164 36.2618V38.1368C164.863 38.1368 165.658 37.8062 166.354 37.3993C167.051 36.9922 167.738 36.4539 168.378 35.9492L167.218 34.4767Z" fill="#84C8FF" fill-opacity="0.6"/>
<path d="M291.667 34.5736L287 37.2402L283 35.2402L278.333 31.9069L275.667 27.2402L274.333 21.2402L277.667 15.9069H283L287 17.9069L289.667 16.5736L293.667 15.2402L297.667 17.9069L299.667 21.9069L298.333 27.9069L291.667 34.5736Z" fill="#0099FF" fill-opacity="0.4"/>
<path d="M287 18.4501L286.325 19.1003C286.501 19.2839 286.745 19.3876 287 19.3876C287.255 19.3876 287.499 19.2839 287.675 19.1003L287 18.4501ZM283.783 34.4767C281.888 32.9832 279.816 31.5247 278.173 29.6741C276.562 27.8597 275.438 25.7424 275.438 22.9957H273.562C273.562 26.3277 274.951 28.8694 276.771 30.9191C278.559 32.9326 280.838 34.5434 282.622 35.9492L283.783 34.4767ZM275.438 22.9957C275.438 20.3071 276.957 18.0525 279.03 17.1046C281.045 16.1837 283.752 16.4276 286.325 19.1003L287.675 17.8C284.623 14.6288 281.08 14.1061 278.251 15.3993C275.481 16.6655 273.562 19.6056 273.562 22.9957H275.438ZM282.622 35.9492C283.262 36.4539 283.949 36.9922 284.646 37.3993C285.342 37.8062 286.137 38.1368 287 38.1368V36.2618C286.613 36.2618 286.158 36.1109 285.592 35.7804C285.027 35.4501 284.44 34.9951 283.783 34.4767L282.622 35.9492ZM291.378 35.9492C293.162 34.5434 295.441 32.9326 297.229 30.9191C299.049 28.8694 300.438 26.3277 300.438 22.9957H298.562C298.562 25.7424 297.439 27.8597 295.827 29.6741C294.184 31.5247 292.112 32.9832 290.218 34.4767L291.378 35.9492ZM300.438 22.9957C300.438 19.6056 298.519 16.6655 295.749 15.3993C292.92 14.1061 289.377 14.6288 286.325 17.8L287.675 19.1003C290.248 16.4276 292.955 16.1837 294.969 17.1046C297.043 18.0525 298.562 20.3071 298.562 22.9957H300.438ZM290.218 34.4767C289.56 34.9951 288.973 35.4501 288.408 35.7804C287.842 36.1109 287.387 36.2618 287 36.2618V38.1368C287.863 38.1368 288.658 37.8062 289.354 37.3993C290.051 36.9922 290.738 36.4539 291.378 35.9492L290.218 34.4767Z" fill="#84C8FF" fill-opacity="0.6"/>
<path d="M414.667 34.5736L410 37.2402L406 35.2402L401.333 31.9069L398.667 27.2402L397.333 21.2402L400.667 15.9069H406L410 17.9069L412.667 16.5736L416.667 15.2402L420.667 17.9069L422.667 21.9069L421.333 27.9069L414.667 34.5736Z" fill="#0099FF" fill-opacity="0.4"/>
<path d="M410 18.4501L409.325 19.1003C409.501 19.2839 409.745 19.3876 410 19.3876C410.255 19.3876 410.499 19.2839 410.675 19.1003L410 18.4501ZM406.783 34.4767C404.888 32.9832 402.816 31.5247 401.173 29.6741C399.562 27.8597 398.438 25.7424 398.438 22.9957H396.562C396.562 26.3277 397.951 28.8694 399.771 30.9191C401.559 32.9326 403.838 34.5434 405.622 35.9492L406.783 34.4767ZM398.438 22.9957C398.438 20.3071 399.957 18.0525 402.03 17.1046C404.045 16.1837 406.752 16.4276 409.325 19.1003L410.675 17.8C407.623 14.6288 404.08 14.1061 401.251 15.3993C398.481 16.6655 396.562 19.6056 396.562 22.9957H398.438ZM405.622 35.9492C406.262 36.4539 406.949 36.9922 407.646 37.3993C408.342 37.8062 409.137 38.1368 410 38.1368V36.2618C409.613 36.2618 409.158 36.1109 408.592 35.7804C408.027 35.4501 407.44 34.9951 406.783 34.4767L405.622 35.9492ZM414.378 35.9492C416.162 34.5434 418.441 32.9326 420.229 30.9191C422.049 28.8694 423.438 26.3277 423.438 22.9957H421.562C421.562 25.7424 420.439 27.8597 418.827 29.6741C417.184 31.5247 415.112 32.9832 413.218 34.4767L414.378 35.9492ZM423.438 22.9957C423.438 19.6056 421.519 16.6655 418.749 15.3993C415.92 14.1061 412.377 14.6288 409.325 17.8L410.675 19.1003C413.248 16.4276 415.955 16.1837 417.969 17.1046C420.043 18.0525 421.562 20.3071 421.562 22.9957H423.438ZM413.218 34.4767C412.56 34.9951 411.973 35.4501 411.408 35.7804C410.842 36.1109 410.387 36.2618 410 36.2618V38.1368C410.863 38.1368 411.658 37.8062 412.354 37.3993C413.051 36.9922 413.738 36.4539 414.378 35.9492L413.218 34.4767Z" fill="#84C8FF" fill-opacity="0.6"/>
<path d="M537.667 34.5736L533 37.2402L529 35.2402L524.333 31.9069L521.667 27.2402L520.333 21.2402L523.667 15.9069H529L533 17.9069L535.667 16.5736L539.667 15.2402L543.667 17.9069L545.667 21.9069L544.333 27.9069L537.667 34.5736Z" fill="#0099FF" fill-opacity="0.4"/>
<path d="M533 18.4501L532.325 19.1003C532.501 19.2839 532.745 19.3876 533 19.3876C533.255 19.3876 533.499 19.2839 533.675 19.1003L533 18.4501ZM529.783 34.4767C527.888 32.9832 525.816 31.5247 524.173 29.6741C522.562 27.8597 521.438 25.7424 521.438 22.9957H519.562C519.562 26.3277 520.951 28.8694 522.771 30.9191C524.559 32.9326 526.838 34.5434 528.622 35.9492L529.783 34.4767ZM521.438 22.9957C521.438 20.3071 522.957 18.0525 525.03 17.1046C527.045 16.1837 529.752 16.4276 532.325 19.1003L533.675 17.8C530.623 14.6288 527.08 14.1061 524.251 15.3993C521.481 16.6655 519.562 19.6056 519.562 22.9957H521.438ZM528.622 35.9492C529.262 36.4539 529.949 36.9922 530.646 37.3993C531.342 37.8062 532.137 38.1368 533 38.1368V36.2618C532.613 36.2618 532.158 36.1109 531.592 35.7804C531.027 35.4501 530.44 34.9951 529.783 34.4767L528.622 35.9492ZM537.378 35.9492C539.162 34.5434 541.441 32.9326 543.229 30.9191C545.049 28.8694 546.438 26.3277 546.438 22.9957H544.562C544.562 25.7424 543.439 27.8597 541.827 29.6741C540.184 31.5247 538.112 32.9832 536.218 34.4767L537.378 35.9492ZM546.438 22.9957C546.438 19.6056 544.519 16.6655 541.749 15.3993C538.92 14.1061 535.377 14.6288 532.325 17.8L533.675 19.1003C536.248 16.4276 538.955 16.1837 540.969 17.1046C543.043 18.0525 544.562 20.3071 544.562 22.9957H546.438ZM536.218 34.4767C535.56 34.9951 534.973 35.4501 534.408 35.7804C533.842 36.1109 533.387 36.2618 533 36.2618V38.1368C533.863 38.1368 534.658 37.8062 535.354 37.3993C536.051 36.9922 536.738 36.4539 537.378 35.9492L536.218 34.4767Z" fill="#84C8FF" fill-opacity="0.6"/>
<path d="M660.667 34.5736L656 37.2402L652 35.2402L647.333 31.9069L644.667 27.2402L643.333 21.2402L646.667 15.9069H652L656 17.9069L658.667 16.5736L662.667 15.2402L666.667 17.9069L668.667 21.9069L667.333 27.9069L660.667 34.5736Z" fill="#0099FF" fill-opacity="0.4"/>
<path d="M656 18.4501L655.325 19.1003C655.501 19.2839 655.745 19.3876 656 19.3876C656.255 19.3876 656.499 19.2839 656.675 19.1003L656 18.4501ZM652.783 34.4767C650.888 32.9832 648.816 31.5247 647.173 29.6741C645.562 27.8597 644.438 25.7424 644.438 22.9957H642.562C642.562 26.3277 643.951 28.8694 645.771 30.9191C647.559 32.9326 649.838 34.5434 651.622 35.9492L652.783 34.4767ZM644.438 22.9957C644.438 20.3071 645.957 18.0525 648.03 17.1046C650.045 16.1837 652.752 16.4276 655.325 19.1003L656.675 17.8C653.623 14.6288 650.08 14.1061 647.251 15.3993C644.481 16.6655 642.562 19.6056 642.562 22.9957H644.438ZM651.622 35.9492C652.262 36.4539 652.949 36.9922 653.646 37.3993C654.342 37.8062 655.137 38.1368 656 38.1368V36.2618C655.613 36.2618 655.158 36.1109 654.592 35.7804C654.027 35.4501 653.44 34.9951 652.783 34.4767L651.622 35.9492ZM660.378 35.9492C662.162 34.5434 664.441 32.9326 666.229 30.9191C668.049 28.8694 669.438 26.3277 669.438 22.9957H667.562C667.562 25.7424 666.439 27.8597 664.827 29.6741C663.184 31.5247 661.112 32.9832 659.218 34.4767L660.378 35.9492ZM669.438 22.9957C669.438 19.6056 667.519 16.6655 664.749 15.3993C661.92 14.1061 658.377 14.6288 655.325 17.8L656.675 19.1003C659.248 16.4276 661.955 16.1837 663.969 17.1046C666.043 18.0525 667.562 20.3071 667.562 22.9957H669.438ZM659.218 34.4767C658.56 34.9951 657.973 35.4501 657.408 35.7804C656.842 36.1109 656.387 36.2618 656 36.2618V38.1368C656.863 38.1368 657.658 37.8062 658.354 37.3993C659.051 36.9922 659.738 36.4539 660.378 35.9492L659.218 34.4767Z" fill="#84C8FF" fill-opacity="0.6"/>
<path d="M783.667 34.5736L779 37.2402L775 35.2402L770.333 31.9069L767.667 27.2402L766.333 21.2402L769.667 15.9069H775L779 17.9069L781.667 16.5736L785.667 15.2402L789.667 17.9069L791.667 21.9069L790.333 27.9069L783.667 34.5736Z" fill="#0099FF" fill-opacity="0.4"/>
<path d="M779 18.4501L778.325 19.1003C778.501 19.2839 778.745 19.3876 779 19.3876C779.255 19.3876 779.499 19.2839 779.675 19.1003L779 18.4501ZM775.783 34.4767C773.888 32.9832 771.816 31.5247 770.173 29.6741C768.562 27.8597 767.438 25.7424 767.438 22.9957H765.562C765.562 26.3277 766.951 28.8694 768.771 30.9191C770.559 32.9326 772.838 34.5434 774.622 35.9492L775.783 34.4767ZM767.438 22.9957C767.438 20.3071 768.957 18.0525 771.03 17.1046C773.045 16.1837 775.752 16.4276 778.325 19.1003L779.675 17.8C776.623 14.6288 773.08 14.1061 770.251 15.3993C767.481 16.6655 765.562 19.6056 765.562 22.9957H767.438ZM774.622 35.9492C775.262 36.4539 775.949 36.9922 776.646 37.3993C777.342 37.8062 778.137 38.1368 779 38.1368V36.2618C778.613 36.2618 778.158 36.1109 777.592 35.7804C777.027 35.4501 776.44 34.9951 775.783 34.4767L774.622 35.9492ZM783.378 35.9492C785.162 34.5434 787.441 32.9326 789.229 30.9191C791.049 28.8694 792.438 26.3277 792.438 22.9957H790.562C790.562 25.7424 789.439 27.8597 787.827 29.6741C786.184 31.5247 784.112 32.9832 782.218 34.4767L783.378 35.9492ZM792.438 22.9957C792.438 19.6056 790.519 16.6655 787.749 15.3993C784.92 14.1061 781.377 14.6288 778.325 17.8L779.675 19.1003C782.248 16.4276 784.955 16.1837 786.969 17.1046C789.043 18.0525 790.562 20.3071 790.562 22.9957H792.438ZM782.218 34.4767C781.56 34.9951 780.973 35.4501 780.408 35.7804C779.842 36.1109 779.387 36.2618 779 36.2618V38.1368C779.863 38.1368 780.658 37.8062 781.354 37.3993C782.051 36.9922 782.738 36.4539 783.378 35.9492L782.218 34.4767Z" fill="#84C8FF" fill-opacity="0.6"/>
<path d="M906.667 34.5736L902 37.2402L898 35.2402L893.333 31.9069L890.667 27.2402L889.333 21.2402L892.667 15.9069H898L902 17.9069L904.667 16.5736L908.667 15.2402L912.667 17.9069L914.667 21.9069L913.333 27.9069L906.667 34.5736Z" fill="#0099FF" fill-opacity="0.4"/>
<path d="M902 18.4501L901.325 19.1003C901.501 19.2839 901.745 19.3876 902 19.3876C902.255 19.3876 902.499 19.2839 902.675 19.1003L902 18.4501ZM898.783 34.4767C896.888 32.9832 894.816 31.5247 893.173 29.6741C891.562 27.8597 890.438 25.7424 890.438 22.9957H888.562C888.562 26.3277 889.951 28.8694 891.771 30.9191C893.559 32.9326 895.838 34.5434 897.622 35.9492L898.783 34.4767ZM890.438 22.9957C890.438 20.3071 891.957 18.0525 894.03 17.1046C896.045 16.1837 898.752 16.4276 901.325 19.1003L902.675 17.8C899.623 14.6288 896.08 14.1061 893.251 15.3993C890.481 16.6655 888.562 19.6056 888.562 22.9957H890.438ZM897.622 35.9492C898.262 36.4539 898.949 36.9922 899.646 37.3993C900.342 37.8062 901.137 38.1368 902 38.1368V36.2618C901.613 36.2618 901.158 36.1109 900.592 35.7804C900.027 35.4501 899.44 34.9951 898.783 34.4767L897.622 35.9492ZM906.378 35.9492C908.162 34.5434 910.441 32.9326 912.229 30.9191C914.049 28.8694 915.438 26.3277 915.438 22.9957H913.562C913.562 25.7424 912.439 27.8597 910.827 29.6741C909.184 31.5247 907.112 32.9832 905.218 34.4767L906.378 35.9492ZM915.438 22.9957C915.438 19.6056 913.519 16.6655 910.749 15.3993C907.92 14.1061 904.377 14.6288 901.325 17.8L902.675 19.1003C905.248 16.4276 907.955 16.1837 909.969 17.1046C912.043 18.0525 913.562 20.3071 913.562 22.9957H915.438ZM905.218 34.4767C904.56 34.9951 903.973 35.4501 903.408 35.7804C902.842 36.1109 902.387 36.2618 902 36.2618V38.1368C902.863 38.1368 903.658 37.8062 904.354 37.3993C905.051 36.9922 905.738 36.4539 906.378 35.9492L905.218 34.4767Z" fill="#84C8FF" fill-opacity="0.6"/>
<path d="M1029.67 34.5736L1025 37.2402L1021 35.2402L1016.33 31.9069L1013.67 27.2402L1012.33 21.2402L1015.67 15.9069H1021L1025 17.9069L1027.67 16.5736L1031.67 15.2402L1035.67 17.9069L1037.67 21.9069L1036.33 27.9069L1029.67 34.5736Z" fill="#0099FF" fill-opacity="0.4"/>
<path d="M1025 18.4501L1024.32 19.1003C1024.5 19.2839 1024.75 19.3876 1025 19.3876C1025.25 19.3876 1025.5 19.2839 1025.68 19.1003L1025 18.4501ZM1021.78 34.4767C1019.89 32.9832 1017.82 31.5247 1016.17 29.6741C1014.56 27.8597 1013.44 25.7424 1013.44 22.9957H1011.56C1011.56 26.3277 1012.95 28.8694 1014.77 30.9191C1016.56 32.9326 1018.84 34.5434 1020.62 35.9492L1021.78 34.4767ZM1013.44 22.9957C1013.44 20.3071 1014.96 18.0525 1017.03 17.1046C1019.05 16.1837 1021.75 16.4276 1024.32 19.1003L1025.68 17.8C1022.62 14.6288 1019.08 14.1061 1016.25 15.3993C1013.48 16.6655 1011.56 19.6056 1011.56 22.9957H1013.44ZM1020.62 35.9492C1021.26 36.4539 1021.95 36.9922 1022.65 37.3993C1023.34 37.8062 1024.14 38.1368 1025 38.1368V36.2618C1024.61 36.2618 1024.16 36.1109 1023.59 35.7804C1023.03 35.4501 1022.44 34.9951 1021.78 34.4767L1020.62 35.9492ZM1029.38 35.9492C1031.16 34.5434 1033.44 32.9326 1035.23 30.9191C1037.05 28.8694 1038.44 26.3277 1038.44 22.9957H1036.56C1036.56 25.7424 1035.44 27.8597 1033.83 29.6741C1032.18 31.5247 1030.11 32.9832 1028.22 34.4767L1029.38 35.9492ZM1038.44 22.9957C1038.44 19.6056 1036.52 16.6655 1033.75 15.3993C1030.92 14.1061 1027.38 14.6288 1024.32 17.8L1025.68 19.1003C1028.25 16.4276 1030.95 16.1837 1032.97 17.1046C1035.04 18.0525 1036.56 20.3071 1036.56 22.9957H1038.44ZM1028.22 34.4767C1027.56 34.9951 1026.97 35.4501 1026.41 35.7804C1025.84 36.1109 1025.39 36.2618 1025 36.2618V38.1368C1025.86 38.1368 1026.66 37.8062 1027.35 37.3993C1028.05 36.9922 1028.74 36.4539 1029.38 35.9492L1028.22 34.4767Z" fill="#84C8FF" fill-opacity="0.6"/>
<path d="M1152.67 34.5736L1148 37.2402L1144 35.2402L1139.33 31.9069L1136.67 27.2402L1135.33 21.2402L1138.67 15.9069H1144L1148 17.9069L1150.67 16.5736L1154.67 15.2402L1158.67 17.9069L1160.67 21.9069L1159.33 27.9069L1152.67 34.5736Z" fill="#0099FF" fill-opacity="0.4"/>
<path d="M1148 18.4501L1147.32 19.1003C1147.5 19.2839 1147.75 19.3876 1148 19.3876C1148.25 19.3876 1148.5 19.2839 1148.68 19.1003L1148 18.4501ZM1144.78 34.4767C1142.89 32.9832 1140.82 31.5247 1139.17 29.6741C1137.56 27.8597 1136.44 25.7424 1136.44 22.9957H1134.56C1134.56 26.3277 1135.95 28.8694 1137.77 30.9191C1139.56 32.9326 1141.84 34.5434 1143.62 35.9492L1144.78 34.4767ZM1136.44 22.9957C1136.44 20.3071 1137.96 18.0525 1140.03 17.1046C1142.05 16.1837 1144.75 16.4276 1147.32 19.1003L1148.68 17.8C1145.62 14.6288 1142.08 14.1061 1139.25 15.3993C1136.48 16.6655 1134.56 19.6056 1134.56 22.9957H1136.44ZM1143.62 35.9492C1144.26 36.4539 1144.95 36.9922 1145.65 37.3993C1146.34 37.8062 1147.14 38.1368 1148 38.1368V36.2618C1147.61 36.2618 1147.16 36.1109 1146.59 35.7804C1146.03 35.4501 1145.44 34.9951 1144.78 34.4767L1143.62 35.9492ZM1152.38 35.9492C1154.16 34.5434 1156.44 32.9326 1158.23 30.9191C1160.05 28.8694 1161.44 26.3277 1161.44 22.9957H1159.56C1159.56 25.7424 1158.44 27.8597 1156.83 29.6741C1155.18 31.5247 1153.11 32.9832 1151.22 34.4767L1152.38 35.9492ZM1161.44 22.9957C1161.44 19.6056 1159.52 16.6655 1156.75 15.3993C1153.92 14.1061 1150.38 14.6288 1147.32 17.8L1148.68 19.1003C1151.25 16.4276 1153.95 16.1837 1155.97 17.1046C1158.04 18.0525 1159.56 20.3071 1159.56 22.9957H1161.44ZM1151.22 34.4767C1150.56 34.9951 1149.97 35.4501 1149.41 35.7804C1148.84 36.1109 1148.39 36.2618 1148 36.2618V38.1368C1148.86 38.1368 1149.66 37.8062 1150.35 37.3993C1151.05 36.9922 1151.74 36.4539 1152.38 35.9492L1151.22 34.4767Z" fill="#84C8FF" fill-opacity="0.6"/>
<path d="M1275.67 34.5736L1271 37.2402L1267 35.2402L1262.33 31.9069L1259.67 27.2402L1258.33 21.2402L1261.67 15.9069H1267L1271 17.9069L1273.67 16.5736L1277.67 15.2402L1281.67 17.9069L1283.67 21.9069L1282.33 27.9069L1275.67 34.5736Z" fill="#0099FF" fill-opacity="0.4"/>
<path d="M1271 18.4501L1270.32 19.1003C1270.5 19.2839 1270.75 19.3876 1271 19.3876C1271.25 19.3876 1271.5 19.2839 1271.68 19.1003L1271 18.4501ZM1267.78 34.4767C1265.89 32.9832 1263.82 31.5247 1262.17 29.6741C1260.56 27.8597 1259.44 25.7424 1259.44 22.9957H1257.56C1257.56 26.3277 1258.95 28.8694 1260.77 30.9191C1262.56 32.9326 1264.84 34.5434 1266.62 35.9492L1267.78 34.4767ZM1259.44 22.9957C1259.44 20.3071 1260.96 18.0525 1263.03 17.1046C1265.05 16.1837 1267.75 16.4276 1270.32 19.1003L1271.68 17.8C1268.62 14.6288 1265.08 14.1061 1262.25 15.3993C1259.48 16.6655 1257.56 19.6056 1257.56 22.9957H1259.44ZM1266.62 35.9492C1267.26 36.4539 1267.95 36.9922 1268.65 37.3993C1269.34 37.8062 1270.14 38.1368 1271 38.1368V36.2618C1270.61 36.2618 1270.16 36.1109 1269.59 35.7804C1269.03 35.4501 1268.44 34.9951 1267.78 34.4767L1266.62 35.9492ZM1275.38 35.9492C1277.16 34.5434 1279.44 32.9326 1281.23 30.9191C1283.05 28.8694 1284.44 26.3277 1284.44 22.9957H1282.56C1282.56 25.7424 1281.44 27.8597 1279.83 29.6741C1278.18 31.5247 1276.11 32.9832 1274.22 34.4767L1275.38 35.9492ZM1284.44 22.9957C1284.44 19.6056 1282.52 16.6655 1279.75 15.3993C1276.92 14.1061 1273.38 14.6288 1270.32 17.8L1271.68 19.1003C1274.25 16.4276 1276.95 16.1837 1278.97 17.1046C1281.04 18.0525 1282.56 20.3071 1282.56 22.9957H1284.44ZM1274.22 34.4767C1273.56 34.9951 1272.97 35.4501 1272.41 35.7804C1271.84 36.1109 1271.39 36.2618 1271 36.2618V38.1368C1271.86 38.1368 1272.66 37.8062 1273.35 37.3993C1274.05 36.9922 1274.74 36.4539 1275.38 35.9492L1274.22 34.4767Z" fill="#84C8FF" fill-opacity="0.6"/>
<path d="M1398.67 34.5736L1394 37.2402L1390 35.2402L1385.33 31.9069L1382.67 27.2402L1381.33 21.2402L1384.67 15.9069H1390L1394 17.9069L1396.67 16.5736L1400.67 15.2402L1404.67 17.9069L1406.67 21.9069L1405.33 27.9069L1398.67 34.5736Z" fill="#0099FF" fill-opacity="0.4"/>
<path d="M1394 18.4501L1393.32 19.1003C1393.5 19.2839 1393.75 19.3876 1394 19.3876C1394.25 19.3876 1394.5 19.2839 1394.68 19.1003L1394 18.4501ZM1390.78 34.4767C1388.89 32.9832 1386.82 31.5247 1385.17 29.6741C1383.56 27.8597 1382.44 25.7424 1382.44 22.9957H1380.56C1380.56 26.3277 1381.95 28.8694 1383.77 30.9191C1385.56 32.9326 1387.84 34.5434 1389.62 35.9492L1390.78 34.4767ZM1382.44 22.9957C1382.44 20.3071 1383.96 18.0525 1386.03 17.1046C1388.05 16.1837 1390.75 16.4276 1393.32 19.1003L1394.68 17.8C1391.62 14.6288 1388.08 14.1061 1385.25 15.3993C1382.48 16.6655 1380.56 19.6056 1380.56 22.9957H1382.44ZM1389.62 35.9492C1390.26 36.4539 1390.95 36.9922 1391.65 37.3993C1392.34 37.8062 1393.14 38.1368 1394 38.1368V36.2618C1393.61 36.2618 1393.16 36.1109 1392.59 35.7804C1392.03 35.4501 1391.44 34.9951 1390.78 34.4767L1389.62 35.9492ZM1398.38 35.9492C1400.16 34.5434 1402.44 32.9326 1404.23 30.9191C1406.05 28.8694 1407.44 26.3277 1407.44 22.9957H1405.56C1405.56 25.7424 1404.44 27.8597 1402.83 29.6741C1401.18 31.5247 1399.11 32.9832 1397.22 34.4767L1398.38 35.9492ZM1407.44 22.9957C1407.44 19.6056 1405.52 16.6655 1402.75 15.3993C1399.92 14.1061 1396.38 14.6288 1393.32 17.8L1394.68 19.1003C1397.25 16.4276 1399.95 16.1837 1401.97 17.1046C1404.04 18.0525 1405.56 20.3071 1405.56 22.9957H1407.44ZM1397.22 34.4767C1396.56 34.9951 1395.97 35.4501 1395.41 35.7804C1394.84 36.1109 1394.39 36.2618 1394 36.2618V38.1368C1394.86 38.1368 1395.66 37.8062 1396.35 37.3993C1397.05 36.9922 1397.74 36.4539 1398.38 35.9492L1397.22 34.4767Z" fill="#84C8FF" fill-opacity="0.6"/>
<path d="M1521.67 34.5736L1517 37.2402L1513 35.2402L1508.33 31.9069L1505.67 27.2402L1504.33 21.2402L1507.67 15.9069H1513L1517 17.9069L1519.67 16.5736L1523.67 15.2402L1527.67 17.9069L1529.67 21.9069L1528.33 27.9069L1521.67 34.5736Z" fill="#0099FF" fill-opacity="0.4"/>
<path d="M1517 18.4501L1516.32 19.1003C1516.5 19.2839 1516.75 19.3876 1517 19.3876C1517.25 19.3876 1517.5 19.2839 1517.68 19.1003L1517 18.4501ZM1513.78 34.4767C1511.89 32.9832 1509.82 31.5247 1508.17 29.6741C1506.56 27.8597 1505.44 25.7424 1505.44 22.9957H1503.56C1503.56 26.3277 1504.95 28.8694 1506.77 30.9191C1508.56 32.9326 1510.84 34.5434 1512.62 35.9492L1513.78 34.4767ZM1505.44 22.9957C1505.44 20.3071 1506.96 18.0525 1509.03 17.1046C1511.05 16.1837 1513.75 16.4276 1516.32 19.1003L1517.68 17.8C1514.62 14.6288 1511.08 14.1061 1508.25 15.3993C1505.48 16.6655 1503.56 19.6056 1503.56 22.9957H1505.44ZM1512.62 35.9492C1513.26 36.4539 1513.95 36.9922 1514.65 37.3993C1515.34 37.8062 1516.14 38.1368 1517 38.1368V36.2618C1516.61 36.2618 1516.16 36.1109 1515.59 35.7804C1515.03 35.4501 1514.44 34.9951 1513.78 34.4767L1512.62 35.9492ZM1521.38 35.9492C1523.16 34.5434 1525.44 32.9326 1527.23 30.9191C1529.05 28.8694 1530.44 26.3277 1530.44 22.9957H1528.56C1528.56 25.7424 1527.44 27.8597 1525.83 29.6741C1524.18 31.5247 1522.11 32.9832 1520.22 34.4767L1521.38 35.9492ZM1530.44 22.9957C1530.44 19.6056 1528.52 16.6655 1525.75 15.3993C1522.92 14.1061 1519.38 14.6288 1516.32 17.8L1517.68 19.1003C1520.25 16.4276 1522.95 16.1837 1524.97 17.1046C1527.04 18.0525 1528.56 20.3071 1528.56 22.9957H1530.44ZM1520.22 34.4767C1519.56 34.9951 1518.97 35.4501 1518.41 35.7804C1517.84 36.1109 1517.39 36.2618 1517 36.2618V38.1368C1517.86 38.1368 1518.66 37.8062 1519.35 37.3993C1520.05 36.9922 1520.74 36.4539 1521.38 35.9492L1520.22 34.4767Z" fill="#84C8FF" fill-opacity="0.6"/>
<path d="M45.6666 165.574L41 168.24L37 166.24L32.3333 162.907L29.6666 158.24L28.3333 152.24L31.6666 146.907H37L41 148.907L43.6666 147.574L47.6666 146.24L51.6666 148.907L53.6666 152.907L52.3333 158.907L45.6666 165.574Z" fill="#0099FF" fill-opacity="0.4"/>
<path d="M41 149.45L40.3245 150.1C40.5013 150.284 40.7451 150.388 41 150.388C41.2549 150.388 41.4987 150.284 41.6755 150.1L41 149.45ZM37.7826 165.477C35.888 163.983 33.8163 162.525 32.1729 160.674C30.5615 158.86 29.4375 156.742 29.4375 153.996H27.5625C27.5625 157.328 28.9506 159.869 30.7709 161.919C32.559 163.933 34.8385 165.543 36.6218 166.949L37.7826 165.477ZM29.4375 153.996C29.4375 151.307 30.9567 149.053 33.0304 148.105C35.0451 147.184 37.7521 147.428 40.3245 150.1L41.6755 148.8C38.6231 145.629 35.0801 145.106 32.2509 146.399C29.4809 147.666 27.5625 150.606 27.5625 153.996H29.4375ZM36.6218 166.949C37.2621 167.454 37.9494 167.992 38.646 168.399C39.3424 168.806 40.137 169.137 41 169.137V167.262C40.613 167.262 40.1576 167.111 39.592 166.78C39.0266 166.45 38.4401 165.995 37.7826 165.477L36.6218 166.949ZM45.3783 166.949C47.1615 165.543 49.441 163.933 51.2291 161.919C53.0494 159.869 54.4375 157.328 54.4375 153.996H52.5625C52.5625 156.742 51.4385 158.86 49.8271 160.674C48.1836 162.525 46.112 163.983 44.2175 165.477L45.3783 166.949ZM54.4375 153.996C54.4375 150.606 52.5191 147.666 49.749 146.399C46.9199 145.106 43.3769 145.629 40.3245 148.8L41.6755 150.1C44.2479 147.428 46.9549 147.184 48.9695 148.105C51.0432 149.053 52.5625 151.307 52.5625 153.996H54.4375ZM44.2175 165.477C43.5599 165.995 42.9734 166.45 42.408 166.78C41.8424 167.111 41.387 167.262 41 167.262V169.137C41.863 169.137 42.6576 168.806 43.354 168.399C44.0506 167.992 44.7379 167.454 45.3783 166.949L44.2175 165.477Z" fill="#84C8FF" fill-opacity="0.6"/>
<path d="M168.667 165.574L164 168.24L160 166.24L155.333 162.907L152.667 158.24L151.333 152.24L154.667 146.907H160L164 148.907L166.667 147.574L170.667 146.24L174.667 148.907L176.667 152.907L175.333 158.907L168.667 165.574Z" fill="#0099FF" fill-opacity="0.4"/>
<path d="M164 149.45L163.325 150.1C163.501 150.284 163.745 150.388 164 150.388C164.255 150.388 164.499 150.284 164.675 150.1L164 149.45ZM160.783 165.477C158.888 163.983 156.816 162.525 155.173 160.674C153.562 158.86 152.438 156.742 152.438 153.996H150.562C150.562 157.328 151.951 159.869 153.771 161.919C155.559 163.933 157.838 165.543 159.622 166.949L160.783 165.477ZM152.438 153.996C152.438 151.307 153.957 149.053 156.03 148.105C158.045 147.184 160.752 147.428 163.325 150.1L164.675 148.8C161.623 145.629 158.08 145.106 155.251 146.399C152.481 147.666 150.562 150.606 150.562 153.996H152.438ZM159.622 166.949C160.262 167.454 160.949 167.992 161.646 168.399C162.342 168.806 163.137 169.137 164 169.137V167.262C163.613 167.262 163.158 167.111 162.592 166.78C162.027 166.45 161.44 165.995 160.783 165.477L159.622 166.949ZM168.378 166.949C170.162 165.543 172.441 163.933 174.229 161.919C176.049 159.869 177.438 157.328 177.438 153.996H175.562C175.562 156.742 174.439 158.86 172.827 160.674C171.184 162.525 169.112 163.983 167.218 165.477L168.378 166.949ZM177.438 153.996C177.438 150.606 175.519 147.666 172.749 146.399C169.92 145.106 166.377 145.629 163.325 148.8L164.675 150.1C167.248 147.428 169.955 147.184 171.969 148.105C174.043 149.053 175.562 151.307 175.562 153.996H177.438ZM167.218 165.477C166.56 165.995 165.973 166.45 165.408 166.78C164.842 167.111 164.387 167.262 164 167.262V169.137C164.863 169.137 165.658 168.806 166.354 168.399C167.051 167.992 167.738 167.454 168.378 166.949L167.218 165.477Z" fill="#84C8FF" fill-opacity="0.6"/>
<path d="M291.667 165.574L287 168.24L283 166.24L278.333 162.907L275.667 158.24L274.333 152.24L277.667 146.907H283L287 148.907L289.667 147.574L293.667 146.24L297.667 148.907L299.667 152.907L298.333 158.907L291.667 165.574Z" fill="#0099FF" fill-opacity="0.4"/>
<path d="M287 149.45L286.325 150.1C286.501 150.284 286.745 150.388 287 150.388C287.255 150.388 287.499 150.284 287.675 150.1L287 149.45ZM283.783 165.477C281.888 163.983 279.816 162.525 278.173 160.674C276.562 158.86 275.438 156.742 275.438 153.996H273.562C273.562 157.328 274.951 159.869 276.771 161.919C278.559 163.933 280.838 165.543 282.622 166.949L283.783 165.477ZM275.438 153.996C275.438 151.307 276.957 149.053 279.03 148.105C281.045 147.184 283.752 147.428 286.325 150.1L287.675 148.8C284.623 145.629 281.08 145.106 278.251 146.399C275.481 147.666 273.562 150.606 273.562 153.996H275.438ZM282.622 166.949C283.262 167.454 283.949 167.992 284.646 168.399C285.342 168.806 286.137 169.137 287 169.137V167.262C286.613 167.262 286.158 167.111 285.592 166.78C285.027 166.45 284.44 165.995 283.783 165.477L282.622 166.949ZM291.378 166.949C293.162 165.543 295.441 163.933 297.229 161.919C299.049 159.869 300.438 157.328 300.438 153.996H298.562C298.562 156.742 297.439 158.86 295.827 160.674C294.184 162.525 292.112 163.983 290.218 165.477L291.378 166.949ZM300.438 153.996C300.438 150.606 298.519 147.666 295.749 146.399C292.92 145.106 289.377 145.629 286.325 148.8L287.675 150.1C290.248 147.428 292.955 147.184 294.969 148.105C297.043 149.053 298.562 151.307 298.562 153.996H300.438ZM290.218 165.477C289.56 165.995 288.973 166.45 288.408 166.78C287.842 167.111 287.387 167.262 287 167.262V169.137C287.863 169.137 288.658 168.806 289.354 168.399C290.051 167.992 290.738 167.454 291.378 166.949L290.218 165.477Z" fill="#84C8FF" fill-opacity="0.6"/>
<path d="M414.667 165.574L410 168.24L406 166.24L401.333 162.907L398.667 158.24L397.333 152.24L400.667 146.907H406L410 148.907L412.667 147.574L416.667 146.24L420.667 148.907L422.667 152.907L421.333 158.907L414.667 165.574Z" fill="#0099FF" fill-opacity="0.4"/>
<path d="M410 149.45L409.325 150.1C409.501 150.284 409.745 150.388 410 150.388C410.255 150.388 410.499 150.284 410.675 150.1L410 149.45ZM406.783 165.477C404.888 163.983 402.816 162.525 401.173 160.674C399.562 158.86 398.438 156.742 398.438 153.996H396.562C396.562 157.328 397.951 159.869 399.771 161.919C401.559 163.933 403.838 165.543 405.622 166.949L406.783 165.477ZM398.438 153.996C398.438 151.307 399.957 149.053 402.03 148.105C404.045 147.184 406.752 147.428 409.325 150.1L410.675 148.8C407.623 145.629 404.08 145.106 401.251 146.399C398.481 147.666 396.562 150.606 396.562 153.996H398.438ZM405.622 166.949C406.262 167.454 406.949 167.992 407.646 168.399C408.342 168.806 409.137 169.137 410 169.137V167.262C409.613 167.262 409.158 167.111 408.592 166.78C408.027 166.45 407.44 165.995 406.783 165.477L405.622 166.949ZM414.378 166.949C416.162 165.543 418.441 163.933 420.229 161.919C422.049 159.869 423.438 157.328 423.438 153.996H421.562C421.562 156.742 420.439 158.86 418.827 160.674C417.184 162.525 415.112 163.983 413.218 165.477L414.378 166.949ZM423.438 153.996C423.438 150.606 421.519 147.666 418.749 146.399C415.92 145.106 412.377 145.629 409.325 148.8L410.675 150.1C413.248 147.428 415.955 147.184 417.969 148.105C420.043 149.053 421.562 151.307 421.562 153.996H423.438ZM413.218 165.477C412.56 165.995 411.973 166.45 411.408 166.78C410.842 167.111 410.387 167.262 410 167.262V169.137C410.863 169.137 411.658 168.806 412.354 168.399C413.051 167.992 413.738 167.454 414.378 166.949L413.218 165.477Z" fill="#84C8FF" fill-opacity="0.6"/>
<path d="M537.667 165.574L533 168.24L529 166.24L524.333 162.907L521.667 158.24L520.333 152.24L523.667 146.907H529L533 148.907L535.667 147.574L539.667 146.24L543.667 148.907L545.667 152.907L544.333 158.907L537.667 165.574Z" fill="#0099FF" fill-opacity="0.4"/>
<path d="M533 149.45L532.325 150.1C532.501 150.284 532.745 150.388 533 150.388C533.255 150.388 533.499 150.284 533.675 150.1L533 149.45ZM529.783 165.477C527.888 163.983 525.816 162.525 524.173 160.674C522.562 158.86 521.438 156.742 521.438 153.996H519.562C519.562 157.328 520.951 159.869 522.771 161.919C524.559 163.933 526.838 165.543 528.622 166.949L529.783 165.477ZM521.438 153.996C521.438 151.307 522.957 149.053 525.03 148.105C527.045 147.184 529.752 147.428 532.325 150.1L533.675 148.8C530.623 145.629 527.08 145.106 524.251 146.399C521.481 147.666 519.562 150.606 519.562 153.996H521.438ZM528.622 166.949C529.262 167.454 529.949 167.992 530.646 168.399C531.342 168.806 532.137 169.137 533 169.137V167.262C532.613 167.262 532.158 167.111 531.592 166.78C531.027 166.45 530.44 165.995 529.783 165.477L528.622 166.949ZM537.378 166.949C539.162 165.543 541.441 163.933 543.229 161.919C545.049 159.869 546.438 157.328 546.438 153.996H544.562C544.562 156.742 543.439 158.86 541.827 160.674C540.184 162.525 538.112 163.983 536.218 165.477L537.378 166.949ZM546.438 153.996C546.438 150.606 544.519 147.666 541.749 146.399C538.92 145.106 535.377 145.629 532.325 148.8L533.675 150.1C536.248 147.428 538.955 147.184 540.969 148.105C543.043 149.053 544.562 151.307 544.562 153.996H546.438ZM536.218 165.477C535.56 165.995 534.973 166.45 534.408 166.78C533.842 167.111 533.387 167.262 533 167.262V169.137C533.863 169.137 534.658 168.806 535.354 168.399C536.051 167.992 536.738 167.454 537.378 166.949L536.218 165.477Z" fill="#84C8FF" fill-opacity="0.6"/>
<path d="M660.667 165.574L656 168.24L652 166.24L647.333 162.907L644.667 158.24L643.333 152.24L646.667 146.907H652L656 148.907L658.667 147.574L662.667 146.24L666.667 148.907L668.667 152.907L667.333 158.907L660.667 165.574Z" fill="#0099FF" fill-opacity="0.4"/>
<path d="M656 149.45L655.325 150.1C655.501 150.284 655.745 150.388 656 150.388C656.255 150.388 656.499 150.284 656.675 150.1L656 149.45ZM652.783 165.477C650.888 163.983 648.816 162.525 647.173 160.674C645.562 158.86 644.438 156.742 644.438 153.996H642.562C642.562 157.328 643.951 159.869 645.771 161.919C647.559 163.933 649.838 165.543 651.622 166.949L652.783 165.477ZM644.438 153.996C644.438 151.307 645.957 149.053 648.03 148.105C650.045 147.184 652.752 147.428 655.325 150.1L656.675 148.8C653.623 145.629 650.08 145.106 647.251 146.399C644.481 147.666 642.562 150.606 642.562 153.996H644.438ZM651.622 166.949C652.262 167.454 652.949 167.992 653.646 168.399C654.342 168.806 655.137 169.137 656 169.137V167.262C655.613 167.262 655.158 167.111 654.592 166.78C654.027 166.45 653.44 165.995 652.783 165.477L651.622 166.949ZM660.378 166.949C662.162 165.543 664.441 163.933 666.229 161.919C668.049 159.869 669.438 157.328 669.438 153.996H667.562C667.562 156.742 666.439 158.86 664.827 160.674C663.184 162.525 661.112 163.983 659.218 165.477L660.378 166.949ZM669.438 153.996C669.438 150.606 667.519 147.666 664.749 146.399C661.92 145.106 658.377 145.629 655.325 148.8L656.675 150.1C659.248 147.428 661.955 147.184 663.969 148.105C666.043 149.053 667.562 151.307 667.562 153.996H669.438ZM659.218 165.477C658.56 165.995 657.973 166.45 657.408 166.78C656.842 167.111 656.387 167.262 656 167.262V169.137C656.863 169.137 657.658 168.806 658.354 168.399C659.051 167.992 659.738 167.454 660.378 166.949L659.218 165.477Z" fill="#84C8FF" fill-opacity="0.6"/>
<path d="M783.667 165.574L779 168.24L775 166.24L770.333 162.907L767.667 158.24L766.333 152.24L769.667 146.907H775L779 148.907L781.667 147.574L785.667 146.24L789.667 148.907L791.667 152.907L790.333 158.907L783.667 165.574Z" fill="#0099FF" fill-opacity="0.4"/>
<path d="M779 149.45L778.325 150.1C778.501 150.284 778.745 150.388 779 150.388C779.255 150.388 779.499 150.284 779.675 150.1L779 149.45ZM775.783 165.477C773.888 163.983 771.816 162.525 770.173 160.674C768.562 158.86 767.438 156.742 767.438 153.996H765.562C765.562 157.328 766.951 159.869 768.771 161.919C770.559 163.933 772.838 165.543 774.622 166.949L775.783 165.477ZM767.438 153.996C767.438 151.307 768.957 149.053 771.03 148.105C773.045 147.184 775.752 147.428 778.325 150.1L779.675 148.8C776.623 145.629 773.08 145.106 770.251 146.399C767.481 147.666 765.562 150.606 765.562 153.996H767.438ZM774.622 166.949C775.262 167.454 775.949 167.992 776.646 168.399C777.342 168.806 778.137 169.137 779 169.137V167.262C778.613 167.262 778.158 167.111 777.592 166.78C777.027 166.45 776.44 165.995 775.783 165.477L774.622 166.949ZM783.378 166.949C785.162 165.543 787.441 163.933 789.229 161.919C791.049 159.869 792.438 157.328 792.438 153.996H790.562C790.562 156.742 789.439 158.86 787.827 160.674C786.184 162.525 784.112 163.983 782.218 165.477L783.378 166.949ZM792.438 153.996C792.438 150.606 790.519 147.666 787.749 146.399C784.92 145.106 781.377 145.629 778.325 148.8L779.675 150.1C782.248 147.428 784.955 147.184 786.969 148.105C789.043 149.053 790.562 151.307 790.562 153.996H792.438ZM782.218 165.477C781.56 165.995 780.973 166.45 780.408 166.78C779.842 167.111 779.387 167.262 779 167.262V169.137C779.863 169.137 780.658 168.806 781.354 168.399C782.051 167.992 782.738 167.454 783.378 166.949L782.218 165.477Z" fill="#84C8FF" fill-opacity="0.6"/>
<path d="M906.667 165.574L902 168.24L898 166.24L893.333 162.907L890.667 158.24L889.333 152.24L892.667 146.907H898L902 148.907L904.667 147.574L908.667 146.24L912.667 148.907L914.667 152.907L913.333 158.907L906.667 165.574Z" fill="#0099FF" fill-opacity="0.4"/>
<path d="M902 149.45L901.325 150.1C901.501 150.284 901.745 150.388 902 150.388C902.255 150.388 902.499 150.284 902.675 150.1L902 149.45ZM898.783 165.477C896.888 163.983 894.816 162.525 893.173 160.674C891.562 158.86 890.438 156.742 890.438 153.996H888.562C888.562 157.328 889.951 159.869 891.771 161.919C893.559 163.933 895.838 165.543 897.622 166.949L898.783 165.477ZM890.438 153.996C890.438 151.307 891.957 149.053 894.03 148.105C896.045 147.184 898.752 147.428 901.325 150.1L902.675 148.8C899.623 145.629 896.08 145.106 893.251 146.399C890.481 147.666 888.562 150.606 888.562 153.996H890.438ZM897.622 166.949C898.262 167.454 898.949 167.992 899.646 168.399C900.342 168.806 901.137 169.137 902 169.137V167.262C901.613 167.262 901.158 167.111 900.592 166.78C900.027 166.45 899.44 165.995 898.783 165.477L897.622 166.949ZM906.378 166.949C908.162 165.543 910.441 163.933 912.229 161.919C914.049 159.869 915.438 157.328 915.438 153.996H913.562C913.562 156.742 912.439 158.86 910.827 160.674C909.184 162.525 907.112 163.983 905.218 165.477L906.378 166.949ZM915.438 153.996C915.438 150.606 913.519 147.666 910.749 146.399C907.92 145.106 904.377 145.629 901.325 148.8L902.675 150.1C905.248 147.428 907.955 147.184 909.969 148.105C912.043 149.053 913.562 151.307 913.562 153.996H915.438ZM905.218 165.477C904.56 165.995 903.973 166.45 903.408 166.78C902.842 167.111 902.387 167.262 902 167.262V169.137C902.863 169.137 903.658 168.806 904.354 168.399C905.051 167.992 905.738 167.454 906.378 166.949L905.218 165.477Z" fill="#84C8FF" fill-opacity="0.6"/>
<path d="M1029.67 165.574L1025 168.24L1021 166.24L1016.33 162.907L1013.67 158.24L1012.33 152.24L1015.67 146.907H1021L1025 148.907L1027.67 147.574L1031.67 146.24L1035.67 148.907L1037.67 152.907L1036.33 158.907L1029.67 165.574Z" fill="#0099FF" fill-opacity="0.4"/>
<path d="M1025 149.45L1024.32 150.1C1024.5 150.284 1024.75 150.388 1025 150.388C1025.25 150.388 1025.5 150.284 1025.68 150.1L1025 149.45ZM1021.78 165.477C1019.89 163.983 1017.82 162.525 1016.17 160.674C1014.56 158.86 1013.44 156.742 1013.44 153.996H1011.56C1011.56 157.328 1012.95 159.869 1014.77 161.919C1016.56 163.933 1018.84 165.543 1020.62 166.949L1021.78 165.477ZM1013.44 153.996C1013.44 151.307 1014.96 149.053 1017.03 148.105C1019.05 147.184 1021.75 147.428 1024.32 150.1L1025.68 148.8C1022.62 145.629 1019.08 145.106 1016.25 146.399C1013.48 147.666 1011.56 150.606 1011.56 153.996H1013.44ZM1020.62 166.949C1021.26 167.454 1021.95 167.992 1022.65 168.399C1023.34 168.806 1024.14 169.137 1025 169.137V167.262C1024.61 167.262 1024.16 167.111 1023.59 166.78C1023.03 166.45 1022.44 165.995 1021.78 165.477L1020.62 166.949ZM1029.38 166.949C1031.16 165.543 1033.44 163.933 1035.23 161.919C1037.05 159.869 1038.44 157.328 1038.44 153.996H1036.56C1036.56 156.742 1035.44 158.86 1033.83 160.674C1032.18 162.525 1030.11 163.983 1028.22 165.477L1029.38 166.949ZM1038.44 153.996C1038.44 150.606 1036.52 147.666 1033.75 146.399C1030.92 145.106 1027.38 145.629 1024.32 148.8L1025.68 150.1C1028.25 147.428 1030.95 147.184 1032.97 148.105C1035.04 149.053 1036.56 151.307 1036.56 153.996H1038.44ZM1028.22 165.477C1027.56 165.995 1026.97 166.45 1026.41 166.78C1025.84 167.111 1025.39 167.262 1025 167.262V169.137C1025.86 169.137 1026.66 168.806 1027.35 168.399C1028.05 167.992 1028.74 167.454 1029.38 166.949L1028.22 165.477Z" fill="#84C8FF" fill-opacity="0.6"/>
<path d="M1152.67 165.574L1148 168.24L1144 166.24L1139.33 162.907L1136.67 158.24L1135.33 152.24L1138.67 146.907H1144L1148 148.907L1150.67 147.574L1154.67 146.24L1158.67 148.907L1160.67 152.907L1159.33 158.907L1152.67 165.574Z" fill="#0099FF" fill-opacity="0.4"/>
<path d="M1148 149.45L1147.32 150.1C1147.5 150.284 1147.75 150.388 1148 150.388C1148.25 150.388 1148.5 150.284 1148.68 150.1L1148 149.45ZM1144.78 165.477C1142.89 163.983 1140.82 162.525 1139.17 160.674C1137.56 158.86 1136.44 156.742 1136.44 153.996H1134.56C1134.56 157.328 1135.95 159.869 1137.77 161.919C1139.56 163.933 1141.84 165.543 1143.62 166.949L1144.78 165.477ZM1136.44 153.996C1136.44 151.307 1137.96 149.053 1140.03 148.105C1142.05 147.184 1144.75 147.428 1147.32 150.1L1148.68 148.8C1145.62 145.629 1142.08 145.106 1139.25 146.399C1136.48 147.666 1134.56 150.606 1134.56 153.996H1136.44ZM1143.62 166.949C1144.26 167.454 1144.95 167.992 1145.65 168.399C1146.34 168.806 1147.14 169.137 1148 169.137V167.262C1147.61 167.262 1147.16 167.111 1146.59 166.78C1146.03 166.45 1145.44 165.995 1144.78 165.477L1143.62 166.949ZM1152.38 166.949C1154.16 165.543 1156.44 163.933 1158.23 161.919C1160.05 159.869 1161.44 157.328 1161.44 153.996H1159.56C1159.56 156.742 1158.44 158.86 1156.83 160.674C1155.18 162.525 1153.11 163.983 1151.22 165.477L1152.38 166.949ZM1161.44 153.996C1161.44 150.606 1159.52 147.666 1156.75 146.399C1153.92 145.106 1150.38 145.629 1147.32 148.8L1148.68 150.1C1151.25 147.428 1153.95 147.184 1155.97 148.105C1158.04 149.053 1159.56 151.307 1159.56 153.996H1161.44ZM1151.22 165.477C1150.56 165.995 1149.97 166.45 1149.41 166.78C1148.84 167.111 1148.39 167.262 1148 167.262V169.137C1148.86 169.137 1149.66 168.806 1150.35 168.399C1151.05 167.992 1151.74 167.454 1152.38 166.949L1151.22 165.477Z" fill="#84C8FF" fill-opacity="0.6"/>
<path d="M1275.67 165.574L1271 168.24L1267 166.24L1262.33 162.907L1259.67 158.24L1258.33 152.24L1261.67 146.907H1267L1271 148.907L1273.67 147.574L1277.67 146.24L1281.67 148.907L1283.67 152.907L1282.33 158.907L1275.67 165.574Z" fill="#0099FF" fill-opacity="0.4"/>
<path d="M1271 149.45L1270.32 150.1C1270.5 150.284 1270.75 150.388 1271 150.388C1271.25 150.388 1271.5 150.284 1271.68 150.1L1271 149.45ZM1267.78 165.477C1265.89 163.983 1263.82 162.525 1262.17 160.674C1260.56 158.86 1259.44 156.742 1259.44 153.996H1257.56C1257.56 157.328 1258.95 159.869 1260.77 161.919C1262.56 163.933 1264.84 165.543 1266.62 166.949L1267.78 165.477ZM1259.44 153.996C1259.44 151.307 1260.96 149.053 1263.03 148.105C1265.05 147.184 1267.75 147.428 1270.32 150.1L1271.68 148.8C1268.62 145.629 1265.08 145.106 1262.25 146.399C1259.48 147.666 1257.56 150.606 1257.56 153.996H1259.44ZM1266.62 166.949C1267.26 167.454 1267.95 167.992 1268.65 168.399C1269.34 168.806 1270.14 169.137 1271 169.137V167.262C1270.61 167.262 1270.16 167.111 1269.59 166.78C1269.03 166.45 1268.44 165.995 1267.78 165.477L1266.62 166.949ZM1275.38 166.949C1277.16 165.543 1279.44 163.933 1281.23 161.919C1283.05 159.869 1284.44 157.328 1284.44 153.996H1282.56C1282.56 156.742 1281.44 158.86 1279.83 160.674C1278.18 162.525 1276.11 163.983 1274.22 165.477L1275.38 166.949ZM1284.44 153.996C1284.44 150.606 1282.52 147.666 1279.75 146.399C1276.92 145.106 1273.38 145.629 1270.32 148.8L1271.68 150.1C1274.25 147.428 1276.95 147.184 1278.97 148.105C1281.04 149.053 1282.56 151.307 1282.56 153.996H1284.44ZM1274.22 165.477C1273.56 165.995 1272.97 166.45 1272.41 166.78C1271.84 167.111 1271.39 167.262 1271 167.262V169.137C1271.86 169.137 1272.66 168.806 1273.35 168.399C1274.05 167.992 1274.74 167.454 1275.38 166.949L1274.22 165.477Z" fill="#84C8FF" fill-opacity="0.6"/>
<path d="M1398.67 165.574L1394 168.24L1390 166.24L1385.33 162.907L1382.67 158.24L1381.33 152.24L1384.67 146.907H1390L1394 148.907L1396.67 147.574L1400.67 146.24L1404.67 148.907L1406.67 152.907L1405.33 158.907L1398.67 165.574Z" fill="#0099FF" fill-opacity="0.4"/>
<path d="M1394 149.45L1393.32 150.1C1393.5 150.284 1393.75 150.388 1394 150.388C1394.25 150.388 1394.5 150.284 1394.68 150.1L1394 149.45ZM1390.78 165.477C1388.89 163.983 1386.82 162.525 1385.17 160.674C1383.56 158.86 1382.44 156.742 1382.44 153.996H1380.56C1380.56 157.328 1381.95 159.869 1383.77 161.919C1385.56 163.933 1387.84 165.543 1389.62 166.949L1390.78 165.477ZM1382.44 153.996C1382.44 151.307 1383.96 149.053 1386.03 148.105C1388.05 147.184 1390.75 147.428 1393.32 150.1L1394.68 148.8C1391.62 145.629 1388.08 145.106 1385.25 146.399C1382.48 147.666 1380.56 150.606 1380.56 153.996H1382.44ZM1389.62 166.949C1390.26 167.454 1390.95 167.992 1391.65 168.399C1392.34 168.806 1393.14 169.137 1394 169.137V167.262C1393.61 167.262 1393.16 167.111 1392.59 166.78C1392.03 166.45 1391.44 165.995 1390.78 165.477L1389.62 166.949ZM1398.38 166.949C1400.16 165.543 1402.44 163.933 1404.23 161.919C1406.05 159.869 1407.44 157.328 1407.44 153.996H1405.56C1405.56 156.742 1404.44 158.86 1402.83 160.674C1401.18 162.525 1399.11 163.983 1397.22 165.477L1398.38 166.949ZM1407.44 153.996C1407.44 150.606 1405.52 147.666 1402.75 146.399C1399.92 145.106 1396.38 145.629 1393.32 148.8L1394.68 150.1C1397.25 147.428 1399.95 147.184 1401.97 148.105C1404.04 149.053 1405.56 151.307 1405.56 153.996H1407.44ZM1397.22 165.477C1396.56 165.995 1395.97 166.45 1395.41 166.78C1394.84 167.111 1394.39 167.262 1394 167.262V169.137C1394.86 169.137 1395.66 168.806 1396.35 168.399C1397.05 167.992 1397.74 167.454 1398.38 166.949L1397.22 165.477Z" fill="#84C8FF" fill-opacity="0.6"/>
<path d="M1521.67 165.574L1517 168.24L1513 166.24L1508.33 162.907L1505.67 158.24L1504.33 152.24L1507.67 146.907H1513L1517 148.907L1519.67 147.574L1523.67 146.24L1527.67 148.907L1529.67 152.907L1528.33 158.907L1521.67 165.574Z" fill="#0099FF" fill-opacity="0.4"/>
<path d="M1517 149.45L1516.32 150.1C1516.5 150.284 1516.75 150.388 1517 150.388C1517.25 150.388 1517.5 150.284 1517.68 150.1L1517 149.45ZM1513.78 165.477C1511.89 163.983 1509.82 162.525 1508.17 160.674C1506.56 158.86 1505.44 156.742 1505.44 153.996H1503.56C1503.56 157.328 1504.95 159.869 1506.77 161.919C1508.56 163.933 1510.84 165.543 1512.62 166.949L1513.78 165.477ZM1505.44 153.996C1505.44 151.307 1506.96 149.053 1509.03 148.105C1511.05 147.184 1513.75 147.428 1516.32 150.1L1517.68 148.8C1514.62 145.629 1511.08 145.106 1508.25 146.399C1505.48 147.666 1503.56 150.606 1503.56 153.996H1505.44ZM1512.62 166.949C1513.26 167.454 1513.95 167.992 1514.65 168.399C1515.34 168.806 1516.14 169.137 1517 169.137V167.262C1516.61 167.262 1516.16 167.111 1515.59 166.78C1515.03 166.45 1514.44 165.995 1513.78 165.477L1512.62 166.949ZM1521.38 166.949C1523.16 165.543 1525.44 163.933 1527.23 161.919C1529.05 159.869 1530.44 157.328 1530.44 153.996H1528.56C1528.56 156.742 1527.44 158.86 1525.83 160.674C1524.18 162.525 1522.11 163.983 1520.22 165.477L1521.38 166.949ZM1530.44 153.996C1530.44 150.606 1528.52 147.666 1525.75 146.399C1522.92 145.106 1519.38 145.629 1516.32 148.8L1517.68 150.1C1520.25 147.428 1522.95 147.184 1524.97 148.105C1527.04 149.053 1528.56 151.307 1528.56 153.996H1530.44ZM1520.22 165.477C1519.56 165.995 1518.97 166.45 1518.41 166.78C1517.84 167.111 1517.39 167.262 1517 167.262V169.137C1517.86 169.137 1518.66 168.806 1519.35 168.399C1520.05 167.992 1520.74 167.454 1521.38 166.949L1520.22 165.477Z" fill="#84C8FF" fill-opacity="0.6"/>
<path d="M98.6666 100.074L94 102.74L90 100.74L85.3333 97.4069L82.6666 92.7402L81.3333 86.7402L84.6666 81.4069H90L94 83.4069L96.6666 82.0736L100.667 80.7402L104.667 83.4069L106.667 87.4069L105.333 93.4069L98.6666 100.074Z" fill="#0099FF" fill-opacity="0.4"/>
<path d="M94 83.9501L93.3245 84.6003C93.5013 84.7839 93.7451 84.8876 94 84.8876C94.2549 84.8876 94.4987 84.7839 94.6755 84.6003L94 83.9501ZM90.7826 99.9767C88.888 98.4832 86.8163 97.0247 85.1729 95.1741C83.5615 93.3597 82.4375 91.2424 82.4375 88.4957H80.5625C80.5625 91.8277 81.9506 94.3694 83.7709 96.4191C85.559 98.4326 87.8385 100.043 89.6218 101.449L90.7826 99.9767ZM82.4375 88.4957C82.4375 85.8071 83.9567 83.5525 86.0304 82.6046C88.0451 81.6837 90.7521 81.9276 93.3245 84.6003L94.6755 83.3C91.6231 80.1288 88.0801 79.6061 85.2509 80.8993C82.4809 82.1655 80.5625 85.1056 80.5625 88.4957H82.4375ZM89.6218 101.449C90.2621 101.954 90.9494 102.492 91.646 102.899C92.3424 103.306 93.137 103.637 94 103.637V101.762C93.613 101.762 93.1576 101.611 92.592 101.28C92.0266 100.95 91.4401 100.495 90.7826 99.9767L89.6218 101.449ZM98.3783 101.449C100.162 100.043 102.441 98.4326 104.229 96.4191C106.049 94.3694 107.438 91.8277 107.438 88.4957H105.562C105.562 91.2424 104.439 93.3597 102.827 95.1741C101.184 97.0247 99.112 98.4832 97.2175 99.9767L98.3783 101.449ZM107.438 88.4957C107.438 85.1056 105.519 82.1655 102.749 80.8993C99.9199 79.6061 96.3769 80.1288 93.3245 83.3L94.6755 84.6003C97.2479 81.9276 99.9549 81.6837 101.969 82.6046C104.043 83.5525 105.562 85.8071 105.562 88.4957H107.438ZM97.2175 99.9767C96.5599 100.495 95.9734 100.95 95.408 101.28C94.8424 101.611 94.387 101.762 94 101.762V103.637C94.863 103.637 95.6576 103.306 96.354 102.899C97.0506 102.492 97.7379 101.954 98.3783 101.449L97.2175 99.9767Z" fill="#84C8FF" fill-opacity="0.6"/>
<path d="M221.667 100.074L217 102.74L213 100.74L208.333 97.4069L205.667 92.7402L204.333 86.7402L207.667 81.4069H213L217 83.4069L219.667 82.0736L223.667 80.7402L227.667 83.4069L229.667 87.4069L228.333 93.4069L221.667 100.074Z" fill="#0099FF" fill-opacity="0.4"/>
<path d="M217 83.9501L216.325 84.6003C216.501 84.7839 216.745 84.8876 217 84.8876C217.255 84.8876 217.499 84.7839 217.675 84.6003L217 83.9501ZM213.783 99.9767C211.888 98.4832 209.816 97.0247 208.173 95.1741C206.562 93.3597 205.438 91.2424 205.438 88.4957H203.562C203.562 91.8277 204.951 94.3694 206.771 96.4191C208.559 98.4326 210.838 100.043 212.622 101.449L213.783 99.9767ZM205.438 88.4957C205.438 85.8071 206.957 83.5525 209.03 82.6046C211.045 81.6837 213.752 81.9276 216.325 84.6003L217.675 83.3C214.623 80.1288 211.08 79.6061 208.251 80.8993C205.481 82.1655 203.562 85.1056 203.562 88.4957H205.438ZM212.622 101.449C213.262 101.954 213.949 102.492 214.646 102.899C215.342 103.306 216.137 103.637 217 103.637V101.762C216.613 101.762 216.158 101.611 215.592 101.28C215.027 100.95 214.44 100.495 213.783 99.9767L212.622 101.449ZM221.378 101.449C223.162 100.043 225.441 98.4326 227.229 96.4191C229.049 94.3694 230.438 91.8277 230.438 88.4957H228.562C228.562 91.2424 227.439 93.3597 225.827 95.1741C224.184 97.0247 222.112 98.4832 220.218 99.9767L221.378 101.449ZM230.438 88.4957C230.438 85.1056 228.519 82.1655 225.749 80.8993C222.92 79.6061 219.377 80.1288 216.325 83.3L217.675 84.6003C220.248 81.9276 222.955 81.6837 224.969 82.6046C227.043 83.5525 228.562 85.8071 228.562 88.4957H230.438ZM220.218 99.9767C219.56 100.495 218.973 100.95 218.408 101.28C217.842 101.611 217.387 101.762 217 101.762V103.637C217.863 103.637 218.658 103.306 219.354 102.899C220.051 102.492 220.738 101.954 221.378 101.449L220.218 99.9767Z" fill="#84C8FF" fill-opacity="0.6"/>
<path d="M344.667 100.074L340 102.74L336 100.74L331.333 97.4069L328.667 92.7402L327.333 86.7402L330.667 81.4069H336L340 83.4069L342.667 82.0736L346.667 80.7402L350.667 83.4069L352.667 87.4069L351.333 93.4069L344.667 100.074Z" fill="#0099FF" fill-opacity="0.4"/>
<path d="M340 83.9501L339.325 84.6003C339.501 84.7839 339.745 84.8876 340 84.8876C340.255 84.8876 340.499 84.7839 340.675 84.6003L340 83.9501ZM336.783 99.9767C334.888 98.4832 332.816 97.0247 331.173 95.1741C329.562 93.3597 328.438 91.2424 328.438 88.4957H326.562C326.562 91.8277 327.951 94.3694 329.771 96.4191C331.559 98.4326 333.838 100.043 335.622 101.449L336.783 99.9767ZM328.438 88.4957C328.438 85.8071 329.957 83.5525 332.03 82.6046C334.045 81.6837 336.752 81.9276 339.325 84.6003L340.675 83.3C337.623 80.1288 334.08 79.6061 331.251 80.8993C328.481 82.1655 326.562 85.1056 326.562 88.4957H328.438ZM335.622 101.449C336.262 101.954 336.949 102.492 337.646 102.899C338.342 103.306 339.137 103.637 340 103.637V101.762C339.613 101.762 339.158 101.611 338.592 101.28C338.027 100.95 337.44 100.495 336.783 99.9767L335.622 101.449ZM344.378 101.449C346.162 100.043 348.441 98.4326 350.229 96.4191C352.049 94.3694 353.438 91.8277 353.438 88.4957H351.562C351.562 91.2424 350.439 93.3597 348.827 95.1741C347.184 97.0247 345.112 98.4832 343.218 99.9767L344.378 101.449ZM353.438 88.4957C353.438 85.1056 351.519 82.1655 348.749 80.8993C345.92 79.6061 342.377 80.1288 339.325 83.3L340.675 84.6003C343.248 81.9276 345.955 81.6837 347.969 82.6046C350.043 83.5525 351.562 85.8071 351.562 88.4957H353.438ZM343.218 99.9767C342.56 100.495 341.973 100.95 341.408 101.28C340.842 101.611 340.387 101.762 340 101.762V103.637C340.863 103.637 341.658 103.306 342.354 102.899C343.051 102.492 343.738 101.954 344.378 101.449L343.218 99.9767Z" fill="#84C8FF" fill-opacity="0.6"/>
<path d="M467.667 100.074L463 102.74L459 100.74L454.333 97.4069L451.667 92.7402L450.333 86.7402L453.667 81.4069H459L463 83.4069L465.667 82.0736L469.667 80.7402L473.667 83.4069L475.667 87.4069L474.333 93.4069L467.667 100.074Z" fill="#0099FF" fill-opacity="0.4"/>
<path d="M463 83.9501L462.325 84.6003C462.501 84.7839 462.745 84.8876 463 84.8876C463.255 84.8876 463.499 84.7839 463.675 84.6003L463 83.9501ZM459.783 99.9767C457.888 98.4832 455.816 97.0247 454.173 95.1741C452.562 93.3597 451.438 91.2424 451.438 88.4957H449.562C449.562 91.8277 450.951 94.3694 452.771 96.4191C454.559 98.4326 456.838 100.043 458.622 101.449L459.783 99.9767ZM451.438 88.4957C451.438 85.8071 452.957 83.5525 455.03 82.6046C457.045 81.6837 459.752 81.9276 462.325 84.6003L463.675 83.3C460.623 80.1288 457.08 79.6061 454.251 80.8993C451.481 82.1655 449.562 85.1056 449.562 88.4957H451.438ZM458.622 101.449C459.262 101.954 459.949 102.492 460.646 102.899C461.342 103.306 462.137 103.637 463 103.637V101.762C462.613 101.762 462.158 101.611 461.592 101.28C461.027 100.95 460.44 100.495 459.783 99.9767L458.622 101.449ZM467.378 101.449C469.162 100.043 471.441 98.4326 473.229 96.4191C475.049 94.3694 476.438 91.8277 476.438 88.4957H474.562C474.562 91.2424 473.439 93.3597 471.827 95.1741C470.184 97.0247 468.112 98.4832 466.218 99.9767L467.378 101.449ZM476.438 88.4957C476.438 85.1056 474.519 82.1655 471.749 80.8993C468.92 79.6061 465.377 80.1288 462.325 83.3L463.675 84.6003C466.248 81.9276 468.955 81.6837 470.969 82.6046C473.043 83.5525 474.562 85.8071 474.562 88.4957H476.438ZM466.218 99.9767C465.56 100.495 464.973 100.95 464.408 101.28C463.842 101.611 463.387 101.762 463 101.762V103.637C463.863 103.637 464.658 103.306 465.354 102.899C466.051 102.492 466.738 101.954 467.378 101.449L466.218 99.9767Z" fill="#84C8FF" fill-opacity="0.6"/>
<path d="M590.667 100.074L586 102.74L582 100.74L577.333 97.4069L574.667 92.7402L573.333 86.7402L576.667 81.4069H582L586 83.4069L588.667 82.0736L592.667 80.7402L596.667 83.4069L598.667 87.4069L597.333 93.4069L590.667 100.074Z" fill="#0099FF" fill-opacity="0.4"/>
<path d="M586 83.9501L585.325 84.6003C585.501 84.7839 585.745 84.8876 586 84.8876C586.255 84.8876 586.499 84.7839 586.675 84.6003L586 83.9501ZM582.783 99.9767C580.888 98.4832 578.816 97.0247 577.173 95.1741C575.562 93.3597 574.438 91.2424 574.438 88.4957H572.562C572.562 91.8277 573.951 94.3694 575.771 96.4191C577.559 98.4326 579.838 100.043 581.622 101.449L582.783 99.9767ZM574.438 88.4957C574.438 85.8071 575.957 83.5525 578.03 82.6046C580.045 81.6837 582.752 81.9276 585.325 84.6003L586.675 83.3C583.623 80.1288 580.08 79.6061 577.251 80.8993C574.481 82.1655 572.562 85.1056 572.562 88.4957H574.438ZM581.622 101.449C582.262 101.954 582.949 102.492 583.646 102.899C584.342 103.306 585.137 103.637 586 103.637V101.762C585.613 101.762 585.158 101.611 584.592 101.28C584.027 100.95 583.44 100.495 582.783 99.9767L581.622 101.449ZM590.378 101.449C592.162 100.043 594.441 98.4326 596.229 96.4191C598.049 94.3694 599.438 91.8277 599.438 88.4957H597.562C597.562 91.2424 596.439 93.3597 594.827 95.1741C593.184 97.0247 591.112 98.4832 589.218 99.9767L590.378 101.449ZM599.438 88.4957C599.438 85.1056 597.519 82.1655 594.749 80.8993C591.92 79.6061 588.377 80.1288 585.325 83.3L586.675 84.6003C589.248 81.9276 591.955 81.6837 593.969 82.6046C596.043 83.5525 597.562 85.8071 597.562 88.4957H599.438ZM589.218 99.9767C588.56 100.495 587.973 100.95 587.408 101.28C586.842 101.611 586.387 101.762 586 101.762V103.637C586.863 103.637 587.658 103.306 588.354 102.899C589.051 102.492 589.738 101.954 590.378 101.449L589.218 99.9767Z" fill="#84C8FF" fill-opacity="0.6"/>
<path d="M713.667 100.074L709 102.74L705 100.74L700.333 97.4069L697.667 92.7402L696.333 86.7402L699.667 81.4069H705L709 83.4069L711.667 82.0736L715.667 80.7402L719.667 83.4069L721.667 87.4069L720.333 93.4069L713.667 100.074Z" fill="#0099FF" fill-opacity="0.4"/>
<path d="M709 83.9501L708.325 84.6003C708.501 84.7839 708.745 84.8876 709 84.8876C709.255 84.8876 709.499 84.7839 709.675 84.6003L709 83.9501ZM705.783 99.9767C703.888 98.4832 701.816 97.0247 700.173 95.1741C698.562 93.3597 697.438 91.2424 697.438 88.4957H695.562C695.562 91.8277 696.951 94.3694 698.771 96.4191C700.559 98.4326 702.838 100.043 704.622 101.449L705.783 99.9767ZM697.438 88.4957C697.438 85.8071 698.957 83.5525 701.03 82.6046C703.045 81.6837 705.752 81.9276 708.325 84.6003L709.675 83.3C706.623 80.1288 703.08 79.6061 700.251 80.8993C697.481 82.1655 695.562 85.1056 695.562 88.4957H697.438ZM704.622 101.449C705.262 101.954 705.949 102.492 706.646 102.899C707.342 103.306 708.137 103.637 709 103.637V101.762C708.613 101.762 708.158 101.611 707.592 101.28C707.027 100.95 706.44 100.495 705.783 99.9767L704.622 101.449ZM713.378 101.449C715.162 100.043 717.441 98.4326 719.229 96.4191C721.049 94.3694 722.438 91.8277 722.438 88.4957H720.562C720.562 91.2424 719.439 93.3597 717.827 95.1741C716.184 97.0247 714.112 98.4832 712.218 99.9767L713.378 101.449ZM722.438 88.4957C722.438 85.1056 720.519 82.1655 717.749 80.8993C714.92 79.6061 711.377 80.1288 708.325 83.3L709.675 84.6003C712.248 81.9276 714.955 81.6837 716.969 82.6046C719.043 83.5525 720.562 85.8071 720.562 88.4957H722.438ZM712.218 99.9767C711.56 100.495 710.973 100.95 710.408 101.28C709.842 101.611 709.387 101.762 709 101.762V103.637C709.863 103.637 710.658 103.306 711.354 102.899C712.051 102.492 712.738 101.954 713.378 101.449L712.218 99.9767Z" fill="#84C8FF" fill-opacity="0.6"/>
<path d="M836.667 100.074L832 102.74L828 100.74L823.333 97.4069L820.667 92.7402L819.333 86.7402L822.667 81.4069H828L832 83.4069L834.667 82.0736L838.667 80.7402L842.667 83.4069L844.667 87.4069L843.333 93.4069L836.667 100.074Z" fill="#0099FF" fill-opacity="0.4"/>
<path d="M832 83.9501L831.325 84.6003C831.501 84.7839 831.745 84.8876 832 84.8876C832.255 84.8876 832.499 84.7839 832.675 84.6003L832 83.9501ZM828.783 99.9767C826.888 98.4832 824.816 97.0247 823.173 95.1741C821.562 93.3597 820.438 91.2424 820.438 88.4957H818.562C818.562 91.8277 819.951 94.3694 821.771 96.4191C823.559 98.4326 825.838 100.043 827.622 101.449L828.783 99.9767ZM820.438 88.4957C820.438 85.8071 821.957 83.5525 824.03 82.6046C826.045 81.6837 828.752 81.9276 831.325 84.6003L832.675 83.3C829.623 80.1288 826.08 79.6061 823.251 80.8993C820.481 82.1655 818.562 85.1056 818.562 88.4957H820.438ZM827.622 101.449C828.262 101.954 828.949 102.492 829.646 102.899C830.342 103.306 831.137 103.637 832 103.637V101.762C831.613 101.762 831.158 101.611 830.592 101.28C830.027 100.95 829.44 100.495 828.783 99.9767L827.622 101.449ZM836.378 101.449C838.162 100.043 840.441 98.4326 842.229 96.4191C844.049 94.3694 845.438 91.8277 845.438 88.4957H843.562C843.562 91.2424 842.439 93.3597 840.827 95.1741C839.184 97.0247 837.112 98.4832 835.218 99.9767L836.378 101.449ZM845.438 88.4957C845.438 85.1056 843.519 82.1655 840.749 80.8993C837.92 79.6061 834.377 80.1288 831.325 83.3L832.675 84.6003C835.248 81.9276 837.955 81.6837 839.969 82.6046C842.043 83.5525 843.562 85.8071 843.562 88.4957H845.438ZM835.218 99.9767C834.56 100.495 833.973 100.95 833.408 101.28C832.842 101.611 832.387 101.762 832 101.762V103.637C832.863 103.637 833.658 103.306 834.354 102.899C835.051 102.492 835.738 101.954 836.378 101.449L835.218 99.9767Z" fill="#84C8FF" fill-opacity="0.6"/>
<path d="M959.667 100.074L955 102.74L951 100.74L946.333 97.4069L943.667 92.7402L942.333 86.7402L945.667 81.4069H951L955 83.4069L957.667 82.0736L961.667 80.7402L965.667 83.4069L967.667 87.4069L966.333 93.4069L959.667 100.074Z" fill="#0099FF" fill-opacity="0.4"/>
<path d="M955 83.9501L954.325 84.6003C954.501 84.7839 954.745 84.8876 955 84.8876C955.255 84.8876 955.499 84.7839 955.675 84.6003L955 83.9501ZM951.783 99.9767C949.888 98.4832 947.816 97.0247 946.173 95.1741C944.562 93.3597 943.438 91.2424 943.438 88.4957H941.562C941.562 91.8277 942.951 94.3694 944.771 96.4191C946.559 98.4326 948.838 100.043 950.622 101.449L951.783 99.9767ZM943.438 88.4957C943.438 85.8071 944.957 83.5525 947.03 82.6046C949.045 81.6837 951.752 81.9276 954.325 84.6003L955.675 83.3C952.623 80.1288 949.08 79.6061 946.251 80.8993C943.481 82.1655 941.562 85.1056 941.562 88.4957H943.438ZM950.622 101.449C951.262 101.954 951.949 102.492 952.646 102.899C953.342 103.306 954.137 103.637 955 103.637V101.762C954.613 101.762 954.158 101.611 953.592 101.28C953.027 100.95 952.44 100.495 951.783 99.9767L950.622 101.449ZM959.378 101.449C961.162 100.043 963.441 98.4326 965.229 96.4191C967.049 94.3694 968.438 91.8277 968.438 88.4957H966.562C966.562 91.2424 965.439 93.3597 963.827 95.1741C962.184 97.0247 960.112 98.4832 958.218 99.9767L959.378 101.449ZM968.438 88.4957C968.438 85.1056 966.519 82.1655 963.749 80.8993C960.92 79.6061 957.377 80.1288 954.325 83.3L955.675 84.6003C958.248 81.9276 960.955 81.6837 962.969 82.6046C965.043 83.5525 966.562 85.8071 966.562 88.4957H968.438ZM958.218 99.9767C957.56 100.495 956.973 100.95 956.408 101.28C955.842 101.611 955.387 101.762 955 101.762V103.637C955.863 103.637 956.658 103.306 957.354 102.899C958.051 102.492 958.738 101.954 959.378 101.449L958.218 99.9767Z" fill="#84C8FF" fill-opacity="0.6"/>
<path d="M1082.67 100.074L1078 102.74L1074 100.74L1069.33 97.4069L1066.67 92.7402L1065.33 86.7402L1068.67 81.4069H1074L1078 83.4069L1080.67 82.0736L1084.67 80.7402L1088.67 83.4069L1090.67 87.4069L1089.33 93.4069L1082.67 100.074Z" fill="#0099FF" fill-opacity="0.4"/>
<path d="M1078 83.9501L1077.32 84.6003C1077.5 84.7839 1077.75 84.8876 1078 84.8876C1078.25 84.8876 1078.5 84.7839 1078.68 84.6003L1078 83.9501ZM1074.78 99.9767C1072.89 98.4832 1070.82 97.0247 1069.17 95.1741C1067.56 93.3597 1066.44 91.2424 1066.44 88.4957H1064.56C1064.56 91.8277 1065.95 94.3694 1067.77 96.4191C1069.56 98.4326 1071.84 100.043 1073.62 101.449L1074.78 99.9767ZM1066.44 88.4957C1066.44 85.8071 1067.96 83.5525 1070.03 82.6046C1072.05 81.6837 1074.75 81.9276 1077.32 84.6003L1078.68 83.3C1075.62 80.1288 1072.08 79.6061 1069.25 80.8993C1066.48 82.1655 1064.56 85.1056 1064.56 88.4957H1066.44ZM1073.62 101.449C1074.26 101.954 1074.95 102.492 1075.65 102.899C1076.34 103.306 1077.14 103.637 1078 103.637V101.762C1077.61 101.762 1077.16 101.611 1076.59 101.28C1076.03 100.95 1075.44 100.495 1074.78 99.9767L1073.62 101.449ZM1082.38 101.449C1084.16 100.043 1086.44 98.4326 1088.23 96.4191C1090.05 94.3694 1091.44 91.8277 1091.44 88.4957H1089.56C1089.56 91.2424 1088.44 93.3597 1086.83 95.1741C1085.18 97.0247 1083.11 98.4832 1081.22 99.9767L1082.38 101.449ZM1091.44 88.4957C1091.44 85.1056 1089.52 82.1655 1086.75 80.8993C1083.92 79.6061 1080.38 80.1288 1077.32 83.3L1078.68 84.6003C1081.25 81.9276 1083.95 81.6837 1085.97 82.6046C1088.04 83.5525 1089.56 85.8071 1089.56 88.4957H1091.44ZM1081.22 99.9767C1080.56 100.495 1079.97 100.95 1079.41 101.28C1078.84 101.611 1078.39 101.762 1078 101.762V103.637C1078.86 103.637 1079.66 103.306 1080.35 102.899C1081.05 102.492 1081.74 101.954 1082.38 101.449L1081.22 99.9767Z" fill="#84C8FF" fill-opacity="0.6"/>
<path d="M1205.67 100.074L1201 102.74L1197 100.74L1192.33 97.4069L1189.67 92.7402L1188.33 86.7402L1191.67 81.4069H1197L1201 83.4069L1203.67 82.0736L1207.67 80.7402L1211.67 83.4069L1213.67 87.4069L1212.33 93.4069L1205.67 100.074Z" fill="#0099FF" fill-opacity="0.4"/>
<path d="M1201 83.9501L1200.32 84.6003C1200.5 84.7839 1200.75 84.8876 1201 84.8876C1201.25 84.8876 1201.5 84.7839 1201.68 84.6003L1201 83.9501ZM1197.78 99.9767C1195.89 98.4832 1193.82 97.0247 1192.17 95.1741C1190.56 93.3597 1189.44 91.2424 1189.44 88.4957H1187.56C1187.56 91.8277 1188.95 94.3694 1190.77 96.4191C1192.56 98.4326 1194.84 100.043 1196.62 101.449L1197.78 99.9767ZM1189.44 88.4957C1189.44 85.8071 1190.96 83.5525 1193.03 82.6046C1195.05 81.6837 1197.75 81.9276 1200.32 84.6003L1201.68 83.3C1198.62 80.1288 1195.08 79.6061 1192.25 80.8993C1189.48 82.1655 1187.56 85.1056 1187.56 88.4957H1189.44ZM1196.62 101.449C1197.26 101.954 1197.95 102.492 1198.65 102.899C1199.34 103.306 1200.14 103.637 1201 103.637V101.762C1200.61 101.762 1200.16 101.611 1199.59 101.28C1199.03 100.95 1198.44 100.495 1197.78 99.9767L1196.62 101.449ZM1205.38 101.449C1207.16 100.043 1209.44 98.4326 1211.23 96.4191C1213.05 94.3694 1214.44 91.8277 1214.44 88.4957H1212.56C1212.56 91.2424 1211.44 93.3597 1209.83 95.1741C1208.18 97.0247 1206.11 98.4832 1204.22 99.9767L1205.38 101.449ZM1214.44 88.4957C1214.44 85.1056 1212.52 82.1655 1209.75 80.8993C1206.92 79.6061 1203.38 80.1288 1200.32 83.3L1201.68 84.6003C1204.25 81.9276 1206.95 81.6837 1208.97 82.6046C1211.04 83.5525 1212.56 85.8071 1212.56 88.4957H1214.44ZM1204.22 99.9767C1203.56 100.495 1202.97 100.95 1202.41 101.28C1201.84 101.611 1201.39 101.762 1201 101.762V103.637C1201.86 103.637 1202.66 103.306 1203.35 102.899C1204.05 102.492 1204.74 101.954 1205.38 101.449L1204.22 99.9767Z" fill="#84C8FF" fill-opacity="0.6"/>
<path d="M1328.67 100.074L1324 102.74L1320 100.74L1315.33 97.4069L1312.67 92.7402L1311.33 86.7402L1314.67 81.4069H1320L1324 83.4069L1326.67 82.0736L1330.67 80.7402L1334.67 83.4069L1336.67 87.4069L1335.33 93.4069L1328.67 100.074Z" fill="#0099FF" fill-opacity="0.4"/>
<path d="M1324 83.9501L1323.32 84.6003C1323.5 84.7839 1323.75 84.8876 1324 84.8876C1324.25 84.8876 1324.5 84.7839 1324.68 84.6003L1324 83.9501ZM1320.78 99.9767C1318.89 98.4832 1316.82 97.0247 1315.17 95.1741C1313.56 93.3597 1312.44 91.2424 1312.44 88.4957H1310.56C1310.56 91.8277 1311.95 94.3694 1313.77 96.4191C1315.56 98.4326 1317.84 100.043 1319.62 101.449L1320.78 99.9767ZM1312.44 88.4957C1312.44 85.8071 1313.96 83.5525 1316.03 82.6046C1318.05 81.6837 1320.75 81.9276 1323.32 84.6003L1324.68 83.3C1321.62 80.1288 1318.08 79.6061 1315.25 80.8993C1312.48 82.1655 1310.56 85.1056 1310.56 88.4957H1312.44ZM1319.62 101.449C1320.26 101.954 1320.95 102.492 1321.65 102.899C1322.34 103.306 1323.14 103.637 1324 103.637V101.762C1323.61 101.762 1323.16 101.611 1322.59 101.28C1322.03 100.95 1321.44 100.495 1320.78 99.9767L1319.62 101.449ZM1328.38 101.449C1330.16 100.043 1332.44 98.4326 1334.23 96.4191C1336.05 94.3694 1337.44 91.8277 1337.44 88.4957H1335.56C1335.56 91.2424 1334.44 93.3597 1332.83 95.1741C1331.18 97.0247 1329.11 98.4832 1327.22 99.9767L1328.38 101.449ZM1337.44 88.4957C1337.44 85.1056 1335.52 82.1655 1332.75 80.8993C1329.92 79.6061 1326.38 80.1288 1323.32 83.3L1324.68 84.6003C1327.25 81.9276 1329.95 81.6837 1331.97 82.6046C1334.04 83.5525 1335.56 85.8071 1335.56 88.4957H1337.44ZM1327.22 99.9767C1326.56 100.495 1325.97 100.95 1325.41 101.28C1324.84 101.611 1324.39 101.762 1324 101.762V103.637C1324.86 103.637 1325.66 103.306 1326.35 102.899C1327.05 102.492 1327.74 101.954 1328.38 101.449L1327.22 99.9767Z" fill="#84C8FF" fill-opacity="0.6"/>
<path d="M1451.67 100.074L1447 102.74L1443 100.74L1438.33 97.4069L1435.67 92.7402L1434.33 86.7402L1437.67 81.4069H1443L1447 83.4069L1449.67 82.0736L1453.67 80.7402L1457.67 83.4069L1459.67 87.4069L1458.33 93.4069L1451.67 100.074Z" fill="#0099FF" fill-opacity="0.4"/>
<path d="M1447 83.9501L1446.32 84.6003C1446.5 84.7839 1446.75 84.8876 1447 84.8876C1447.25 84.8876 1447.5 84.7839 1447.68 84.6003L1447 83.9501ZM1443.78 99.9767C1441.89 98.4832 1439.82 97.0247 1438.17 95.1741C1436.56 93.3597 1435.44 91.2424 1435.44 88.4957H1433.56C1433.56 91.8277 1434.95 94.3694 1436.77 96.4191C1438.56 98.4326 1440.84 100.043 1442.62 101.449L1443.78 99.9767ZM1435.44 88.4957C1435.44 85.8071 1436.96 83.5525 1439.03 82.6046C1441.05 81.6837 1443.75 81.9276 1446.32 84.6003L1447.68 83.3C1444.62 80.1288 1441.08 79.6061 1438.25 80.8993C1435.48 82.1655 1433.56 85.1056 1433.56 88.4957H1435.44ZM1442.62 101.449C1443.26 101.954 1443.95 102.492 1444.65 102.899C1445.34 103.306 1446.14 103.637 1447 103.637V101.762C1446.61 101.762 1446.16 101.611 1445.59 101.28C1445.03 100.95 1444.44 100.495 1443.78 99.9767L1442.62 101.449ZM1451.38 101.449C1453.16 100.043 1455.44 98.4326 1457.23 96.4191C1459.05 94.3694 1460.44 91.8277 1460.44 88.4957H1458.56C1458.56 91.2424 1457.44 93.3597 1455.83 95.1741C1454.18 97.0247 1452.11 98.4832 1450.22 99.9767L1451.38 101.449ZM1460.44 88.4957C1460.44 85.1056 1458.52 82.1655 1455.75 80.8993C1452.92 79.6061 1449.38 80.1288 1446.32 83.3L1447.68 84.6003C1450.25 81.9276 1452.95 81.6837 1454.97 82.6046C1457.04 83.5525 1458.56 85.8071 1458.56 88.4957H1460.44ZM1450.22 99.9767C1449.56 100.495 1448.97 100.95 1448.41 101.28C1447.84 101.611 1447.39 101.762 1447 101.762V103.637C1447.86 103.637 1448.66 103.306 1449.35 102.899C1450.05 102.492 1450.74 101.954 1451.38 101.449L1450.22 99.9767Z" fill="#84C8FF" fill-opacity="0.6"/>
<path d="M1574.67 100.074L1570 102.74L1566 100.74L1561.33 97.4069L1558.67 92.7402L1557.33 86.7402L1560.67 81.4069H1566L1570 83.4069L1572.67 82.0736L1576.67 80.7402L1580.67 83.4069L1582.67 87.4069L1581.33 93.4069L1574.67 100.074Z" fill="#0099FF" fill-opacity="0.4"/>
<path d="M1570 83.9501L1569.32 84.6003C1569.5 84.7839 1569.75 84.8876 1570 84.8876C1570.25 84.8876 1570.5 84.7839 1570.68 84.6003L1570 83.9501ZM1566.78 99.9767C1564.89 98.4832 1562.82 97.0247 1561.17 95.1741C1559.56 93.3597 1558.44 91.2424 1558.44 88.4957H1556.56C1556.56 91.8277 1557.95 94.3694 1559.77 96.4191C1561.56 98.4326 1563.84 100.043 1565.62 101.449L1566.78 99.9767ZM1558.44 88.4957C1558.44 85.8071 1559.96 83.5525 1562.03 82.6046C1564.05 81.6837 1566.75 81.9276 1569.32 84.6003L1570.68 83.3C1567.62 80.1288 1564.08 79.6061 1561.25 80.8993C1558.48 82.1655 1556.56 85.1056 1556.56 88.4957H1558.44ZM1565.62 101.449C1566.26 101.954 1566.95 102.492 1567.65 102.899C1568.34 103.306 1569.14 103.637 1570 103.637V101.762C1569.61 101.762 1569.16 101.611 1568.59 101.28C1568.03 100.95 1567.44 100.495 1566.78 99.9767L1565.62 101.449ZM1574.38 101.449C1576.16 100.043 1578.44 98.4326 1580.23 96.4191C1582.05 94.3694 1583.44 91.8277 1583.44 88.4957H1581.56C1581.56 91.2424 1580.44 93.3597 1578.83 95.1741C1577.18 97.0247 1575.11 98.4832 1573.22 99.9767L1574.38 101.449ZM1583.44 88.4957C1583.44 85.1056 1581.52 82.1655 1578.75 80.8993C1575.92 79.6061 1572.38 80.1288 1569.32 83.3L1570.68 84.6003C1573.25 81.9276 1575.95 81.6837 1577.97 82.6046C1580.04 83.5525 1581.56 85.8071 1581.56 88.4957H1583.44ZM1573.22 99.9767C1572.56 100.495 1571.97 100.95 1571.41 101.28C1570.84 101.611 1570.39 101.762 1570 101.762V103.637C1570.86 103.637 1571.66 103.306 1572.35 102.899C1573.05 102.492 1573.74 101.954 1574.38 101.449L1573.22 99.9767Z" fill="#84C8FF" fill-opacity="0.6"/>
<path d="M98.6666 231.074L94 233.74L90 231.74L85.3333 228.407L82.6666 223.74L81.3333 217.74L84.6666 212.407H90L94 214.407L96.6666 213.074L100.667 211.74L104.667 214.407L106.667 218.407L105.333 224.407L98.6666 231.074Z" fill="#0099FF" fill-opacity="0.4"/>
<path d="M94 214.95L93.3245 215.6C93.5013 215.784 93.7451 215.888 94 215.888C94.2549 215.888 94.4987 215.784 94.6755 215.6L94 214.95ZM90.7826 230.977C88.888 229.483 86.8163 228.025 85.1729 226.174C83.5615 224.36 82.4375 222.242 82.4375 219.496H80.5625C80.5625 222.828 81.9506 225.369 83.7709 227.419C85.559 229.433 87.8385 231.043 89.6218 232.449L90.7826 230.977ZM82.4375 219.496C82.4375 216.807 83.9567 214.553 86.0304 213.605C88.0451 212.684 90.7521 212.928 93.3245 215.6L94.6755 214.3C91.6231 211.129 88.0801 210.606 85.2509 211.899C82.4809 213.166 80.5625 216.106 80.5625 219.496H82.4375ZM89.6218 232.449C90.2621 232.954 90.9494 233.492 91.646 233.899C92.3424 234.306 93.137 234.637 94 234.637V232.762C93.613 232.762 93.1576 232.611 92.592 232.28C92.0266 231.95 91.4401 231.495 90.7826 230.977L89.6218 232.449ZM98.3783 232.449C100.162 231.043 102.441 229.433 104.229 227.419C106.049 225.369 107.438 222.828 107.438 219.496H105.562C105.562 222.242 104.439 224.36 102.827 226.174C101.184 228.025 99.112 229.483 97.2175 230.977L98.3783 232.449ZM107.438 219.496C107.438 216.106 105.519 213.166 102.749 211.899C99.9199 210.606 96.3769 211.129 93.3245 214.3L94.6755 215.6C97.2479 212.928 99.9549 212.684 101.969 213.605C104.043 214.553 105.562 216.807 105.562 219.496H107.438ZM97.2175 230.977C96.5599 231.495 95.9734 231.95 95.408 232.28C94.8424 232.611 94.387 232.762 94 232.762V234.637C94.863 234.637 95.6576 234.306 96.354 233.899C97.0506 233.492 97.7379 232.954 98.3783 232.449L97.2175 230.977Z" fill="#84C8FF" fill-opacity="0.6"/>
<path d="M221.667 231.074L217 233.74L213 231.74L208.333 228.407L205.667 223.74L204.333 217.74L207.667 212.407H213L217 214.407L219.667 213.074L223.667 211.74L227.667 214.407L229.667 218.407L228.333 224.407L221.667 231.074Z" fill="#0099FF" fill-opacity="0.4"/>
<path d="M217 214.95L216.325 215.6C216.501 215.784 216.745 215.888 217 215.888C217.255 215.888 217.499 215.784 217.675 215.6L217 214.95ZM213.783 230.977C211.888 229.483 209.816 228.025 208.173 226.174C206.562 224.36 205.438 222.242 205.438 219.496H203.562C203.562 222.828 204.951 225.369 206.771 227.419C208.559 229.433 210.838 231.043 212.622 232.449L213.783 230.977ZM205.438 219.496C205.438 216.807 206.957 214.553 209.03 213.605C211.045 212.684 213.752 212.928 216.325 215.6L217.675 214.3C214.623 211.129 211.08 210.606 208.251 211.899C205.481 213.166 203.562 216.106 203.562 219.496H205.438ZM212.622 232.449C213.262 232.954 213.949 233.492 214.646 233.899C215.342 234.306 216.137 234.637 217 234.637V232.762C216.613 232.762 216.158 232.611 215.592 232.28C215.027 231.95 214.44 231.495 213.783 230.977L212.622 232.449ZM221.378 232.449C223.162 231.043 225.441 229.433 227.229 227.419C229.049 225.369 230.438 222.828 230.438 219.496H228.562C228.562 222.242 227.439 224.36 225.827 226.174C224.184 228.025 222.112 229.483 220.218 230.977L221.378 232.449ZM230.438 219.496C230.438 216.106 228.519 213.166 225.749 211.899C222.92 210.606 219.377 211.129 216.325 214.3L217.675 215.6C220.248 212.928 222.955 212.684 224.969 213.605C227.043 214.553 228.562 216.807 228.562 219.496H230.438ZM220.218 230.977C219.56 231.495 218.973 231.95 218.408 232.28C217.842 232.611 217.387 232.762 217 232.762V234.637C217.863 234.637 218.658 234.306 219.354 233.899C220.051 233.492 220.738 232.954 221.378 232.449L220.218 230.977Z" fill="#84C8FF" fill-opacity="0.6"/>
<path d="M344.667 231.074L340 233.74L336 231.74L331.333 228.407L328.667 223.74L327.333 217.74L330.667 212.407H336L340 214.407L342.667 213.074L346.667 211.74L350.667 214.407L352.667 218.407L351.333 224.407L344.667 231.074Z" fill="#0099FF" fill-opacity="0.4"/>
<path d="M340 214.95L339.325 215.6C339.501 215.784 339.745 215.888 340 215.888C340.255 215.888 340.499 215.784 340.675 215.6L340 214.95ZM336.783 230.977C334.888 229.483 332.816 228.025 331.173 226.174C329.562 224.36 328.438 222.242 328.438 219.496H326.562C326.562 222.828 327.951 225.369 329.771 227.419C331.559 229.433 333.838 231.043 335.622 232.449L336.783 230.977ZM328.438 219.496C328.438 216.807 329.957 214.553 332.03 213.605C334.045 212.684 336.752 212.928 339.325 215.6L340.675 214.3C337.623 211.129 334.08 210.606 331.251 211.899C328.481 213.166 326.562 216.106 326.562 219.496H328.438ZM335.622 232.449C336.262 232.954 336.949 233.492 337.646 233.899C338.342 234.306 339.137 234.637 340 234.637V232.762C339.613 232.762 339.158 232.611 338.592 232.28C338.027 231.95 337.44 231.495 336.783 230.977L335.622 232.449ZM344.378 232.449C346.162 231.043 348.441 229.433 350.229 227.419C352.049 225.369 353.438 222.828 353.438 219.496H351.562C351.562 222.242 350.439 224.36 348.827 226.174C347.184 228.025 345.112 229.483 343.218 230.977L344.378 232.449ZM353.438 219.496C353.438 216.106 351.519 213.166 348.749 211.899C345.92 210.606 342.377 211.129 339.325 214.3L340.675 215.6C343.248 212.928 345.955 212.684 347.969 213.605C350.043 214.553 351.562 216.807 351.562 219.496H353.438ZM343.218 230.977C342.56 231.495 341.973 231.95 341.408 232.28C340.842 232.611 340.387 232.762 340 232.762V234.637C340.863 234.637 341.658 234.306 342.354 233.899C343.051 233.492 343.738 232.954 344.378 232.449L343.218 230.977Z" fill="#84C8FF" fill-opacity="0.6"/>
<path d="M467.667 231.074L463 233.74L459 231.74L454.333 228.407L451.667 223.74L450.333 217.74L453.667 212.407H459L463 214.407L465.667 213.074L469.667 211.74L473.667 214.407L475.667 218.407L474.333 224.407L467.667 231.074Z" fill="#0099FF" fill-opacity="0.4"/>
<path d="M463 214.95L462.325 215.6C462.501 215.784 462.745 215.888 463 215.888C463.255 215.888 463.499 215.784 463.675 215.6L463 214.95ZM459.783 230.977C457.888 229.483 455.816 228.025 454.173 226.174C452.562 224.36 451.438 222.242 451.438 219.496H449.562C449.562 222.828 450.951 225.369 452.771 227.419C454.559 229.433 456.838 231.043 458.622 232.449L459.783 230.977ZM451.438 219.496C451.438 216.807 452.957 214.553 455.03 213.605C457.045 212.684 459.752 212.928 462.325 215.6L463.675 214.3C460.623 211.129 457.08 210.606 454.251 211.899C451.481 213.166 449.562 216.106 449.562 219.496H451.438ZM458.622 232.449C459.262 232.954 459.949 233.492 460.646 233.899C461.342 234.306 462.137 234.637 463 234.637V232.762C462.613 232.762 462.158 232.611 461.592 232.28C461.027 231.95 460.44 231.495 459.783 230.977L458.622 232.449ZM467.378 232.449C469.162 231.043 471.441 229.433 473.229 227.419C475.049 225.369 476.438 222.828 476.438 219.496H474.562C474.562 222.242 473.439 224.36 471.827 226.174C470.184 228.025 468.112 229.483 466.218 230.977L467.378 232.449ZM476.438 219.496C476.438 216.106 474.519 213.166 471.749 211.899C468.92 210.606 465.377 211.129 462.325 214.3L463.675 215.6C466.248 212.928 468.955 212.684 470.969 213.605C473.043 214.553 474.562 216.807 474.562 219.496H476.438ZM466.218 230.977C465.56 231.495 464.973 231.95 464.408 232.28C463.842 232.611 463.387 232.762 463 232.762V234.637C463.863 234.637 464.658 234.306 465.354 233.899C466.051 233.492 466.738 232.954 467.378 232.449L466.218 230.977Z" fill="#84C8FF" fill-opacity="0.6"/>
<path d="M590.667 231.074L586 233.74L582 231.74L577.333 228.407L574.667 223.74L573.333 217.74L576.667 212.407H582L586 214.407L588.667 213.074L592.667 211.74L596.667 214.407L598.667 218.407L597.333 224.407L590.667 231.074Z" fill="#0099FF" fill-opacity="0.4"/>
<path d="M586 214.95L585.325 215.6C585.501 215.784 585.745 215.888 586 215.888C586.255 215.888 586.499 215.784 586.675 215.6L586 214.95ZM582.783 230.977C580.888 229.483 578.816 228.025 577.173 226.174C575.562 224.36 574.438 222.242 574.438 219.496H572.562C572.562 222.828 573.951 225.369 575.771 227.419C577.559 229.433 579.838 231.043 581.622 232.449L582.783 230.977ZM574.438 219.496C574.438 216.807 575.957 214.553 578.03 213.605C580.045 212.684 582.752 212.928 585.325 215.6L586.675 214.3C583.623 211.129 580.08 210.606 577.251 211.899C574.481 213.166 572.562 216.106 572.562 219.496H574.438ZM581.622 232.449C582.262 232.954 582.949 233.492 583.646 233.899C584.342 234.306 585.137 234.637 586 234.637V232.762C585.613 232.762 585.158 232.611 584.592 232.28C584.027 231.95 583.44 231.495 582.783 230.977L581.622 232.449ZM590.378 232.449C592.162 231.043 594.441 229.433 596.229 227.419C598.049 225.369 599.438 222.828 599.438 219.496H597.562C597.562 222.242 596.439 224.36 594.827 226.174C593.184 228.025 591.112 229.483 589.218 230.977L590.378 232.449ZM599.438 219.496C599.438 216.106 597.519 213.166 594.749 211.899C591.92 210.606 588.377 211.129 585.325 214.3L586.675 215.6C589.248 212.928 591.955 212.684 593.969 213.605C596.043 214.553 597.562 216.807 597.562 219.496H599.438ZM589.218 230.977C588.56 231.495 587.973 231.95 587.408 232.28C586.842 232.611 586.387 232.762 586 232.762V234.637C586.863 234.637 587.658 234.306 588.354 233.899C589.051 233.492 589.738 232.954 590.378 232.449L589.218 230.977Z" fill="#84C8FF" fill-opacity="0.6"/>
<path d="M713.667 231.074L709 233.74L705 231.74L700.333 228.407L697.667 223.74L696.333 217.74L699.667 212.407H705L709 214.407L711.667 213.074L715.667 211.74L719.667 214.407L721.667 218.407L720.333 224.407L713.667 231.074Z" fill="#0099FF" fill-opacity="0.4"/>
<path d="M709 214.95L708.325 215.6C708.501 215.784 708.745 215.888 709 215.888C709.255 215.888 709.499 215.784 709.675 215.6L709 214.95ZM705.783 230.977C703.888 229.483 701.816 228.025 700.173 226.174C698.562 224.36 697.438 222.242 697.438 219.496H695.562C695.562 222.828 696.951 225.369 698.771 227.419C700.559 229.433 702.838 231.043 704.622 232.449L705.783 230.977ZM697.438 219.496C697.438 216.807 698.957 214.553 701.03 213.605C703.045 212.684 705.752 212.928 708.325 215.6L709.675 214.3C706.623 211.129 703.08 210.606 700.251 211.899C697.481 213.166 695.562 216.106 695.562 219.496H697.438ZM704.622 232.449C705.262 232.954 705.949 233.492 706.646 233.899C707.342 234.306 708.137 234.637 709 234.637V232.762C708.613 232.762 708.158 232.611 707.592 232.28C707.027 231.95 706.44 231.495 705.783 230.977L704.622 232.449ZM713.378 232.449C715.162 231.043 717.441 229.433 719.229 227.419C721.049 225.369 722.438 222.828 722.438 219.496H720.562C720.562 222.242 719.439 224.36 717.827 226.174C716.184 228.025 714.112 229.483 712.218 230.977L713.378 232.449ZM722.438 219.496C722.438 216.106 720.519 213.166 717.749 211.899C714.92 210.606 711.377 211.129 708.325 214.3L709.675 215.6C712.248 212.928 714.955 212.684 716.969 213.605C719.043 214.553 720.562 216.807 720.562 219.496H722.438ZM712.218 230.977C711.56 231.495 710.973 231.95 710.408 232.28C709.842 232.611 709.387 232.762 709 232.762V234.637C709.863 234.637 710.658 234.306 711.354 233.899C712.051 233.492 712.738 232.954 713.378 232.449L712.218 230.977Z" fill="#84C8FF" fill-opacity="0.6"/>
<path d="M836.667 231.074L832 233.74L828 231.74L823.333 228.407L820.667 223.74L819.333 217.74L822.667 212.407H828L832 214.407L834.667 213.074L838.667 211.74L842.667 214.407L844.667 218.407L843.333 224.407L836.667 231.074Z" fill="#0099FF" fill-opacity="0.4"/>
<path d="M832 214.95L831.325 215.6C831.501 215.784 831.745 215.888 832 215.888C832.255 215.888 832.499 215.784 832.675 215.6L832 214.95ZM828.783 230.977C826.888 229.483 824.816 228.025 823.173 226.174C821.562 224.36 820.438 222.242 820.438 219.496H818.562C818.562 222.828 819.951 225.369 821.771 227.419C823.559 229.433 825.838 231.043 827.622 232.449L828.783 230.977ZM820.438 219.496C820.438 216.807 821.957 214.553 824.03 213.605C826.045 212.684 828.752 212.928 831.325 215.6L832.675 214.3C829.623 211.129 826.08 210.606 823.251 211.899C820.481 213.166 818.562 216.106 818.562 219.496H820.438ZM827.622 232.449C828.262 232.954 828.949 233.492 829.646 233.899C830.342 234.306 831.137 234.637 832 234.637V232.762C831.613 232.762 831.158 232.611 830.592 232.28C830.027 231.95 829.44 231.495 828.783 230.977L827.622 232.449ZM836.378 232.449C838.162 231.043 840.441 229.433 842.229 227.419C844.049 225.369 845.438 222.828 845.438 219.496H843.562C843.562 222.242 842.439 224.36 840.827 226.174C839.184 228.025 837.112 229.483 835.218 230.977L836.378 232.449ZM845.438 219.496C845.438 216.106 843.519 213.166 840.749 211.899C837.92 210.606 834.377 211.129 831.325 214.3L832.675 215.6C835.248 212.928 837.955 212.684 839.969 213.605C842.043 214.553 843.562 216.807 843.562 219.496H845.438ZM835.218 230.977C834.56 231.495 833.973 231.95 833.408 232.28C832.842 232.611 832.387 232.762 832 232.762V234.637C832.863 234.637 833.658 234.306 834.354 233.899C835.051 233.492 835.738 232.954 836.378 232.449L835.218 230.977Z" fill="#84C8FF" fill-opacity="0.6"/>
<path d="M959.667 231.074L955 233.74L951 231.74L946.333 228.407L943.667 223.74L942.333 217.74L945.667 212.407H951L955 214.407L957.667 213.074L961.667 211.74L965.667 214.407L967.667 218.407L966.333 224.407L959.667 231.074Z" fill="#0099FF" fill-opacity="0.4"/>
<path d="M955 214.95L954.325 215.6C954.501 215.784 954.745 215.888 955 215.888C955.255 215.888 955.499 215.784 955.675 215.6L955 214.95ZM951.783 230.977C949.888 229.483 947.816 228.025 946.173 226.174C944.562 224.36 943.438 222.242 943.438 219.496H941.562C941.562 222.828 942.951 225.369 944.771 227.419C946.559 229.433 948.838 231.043 950.622 232.449L951.783 230.977ZM943.438 219.496C943.438 216.807 944.957 214.553 947.03 213.605C949.045 212.684 951.752 212.928 954.325 215.6L955.675 214.3C952.623 211.129 949.08 210.606 946.251 211.899C943.481 213.166 941.562 216.106 941.562 219.496H943.438ZM950.622 232.449C951.262 232.954 951.949 233.492 952.646 233.899C953.342 234.306 954.137 234.637 955 234.637V232.762C954.613 232.762 954.158 232.611 953.592 232.28C953.027 231.95 952.44 231.495 951.783 230.977L950.622 232.449ZM959.378 232.449C961.162 231.043 963.441 229.433 965.229 227.419C967.049 225.369 968.438 222.828 968.438 219.496H966.562C966.562 222.242 965.439 224.36 963.827 226.174C962.184 228.025 960.112 229.483 958.218 230.977L959.378 232.449ZM968.438 219.496C968.438 216.106 966.519 213.166 963.749 211.899C960.92 210.606 957.377 211.129 954.325 214.3L955.675 215.6C958.248 212.928 960.955 212.684 962.969 213.605C965.043 214.553 966.562 216.807 966.562 219.496H968.438ZM958.218 230.977C957.56 231.495 956.973 231.95 956.408 232.28C955.842 232.611 955.387 232.762 955 232.762V234.637C955.863 234.637 956.658 234.306 957.354 233.899C958.051 233.492 958.738 232.954 959.378 232.449L958.218 230.977Z" fill="#84C8FF" fill-opacity="0.6"/>
<path d="M1082.67 231.074L1078 233.74L1074 231.74L1069.33 228.407L1066.67 223.74L1065.33 217.74L1068.67 212.407H1074L1078 214.407L1080.67 213.074L1084.67 211.74L1088.67 214.407L1090.67 218.407L1089.33 224.407L1082.67 231.074Z" fill="#0099FF" fill-opacity="0.4"/>
<path d="M1078 214.95L1077.32 215.6C1077.5 215.784 1077.75 215.888 1078 215.888C1078.25 215.888 1078.5 215.784 1078.68 215.6L1078 214.95ZM1074.78 230.977C1072.89 229.483 1070.82 228.025 1069.17 226.174C1067.56 224.36 1066.44 222.242 1066.44 219.496H1064.56C1064.56 222.828 1065.95 225.369 1067.77 227.419C1069.56 229.433 1071.84 231.043 1073.62 232.449L1074.78 230.977ZM1066.44 219.496C1066.44 216.807 1067.96 214.553 1070.03 213.605C1072.05 212.684 1074.75 212.928 1077.32 215.6L1078.68 214.3C1075.62 211.129 1072.08 210.606 1069.25 211.899C1066.48 213.166 1064.56 216.106 1064.56 219.496H1066.44ZM1073.62 232.449C1074.26 232.954 1074.95 233.492 1075.65 233.899C1076.34 234.306 1077.14 234.637 1078 234.637V232.762C1077.61 232.762 1077.16 232.611 1076.59 232.28C1076.03 231.95 1075.44 231.495 1074.78 230.977L1073.62 232.449ZM1082.38 232.449C1084.16 231.043 1086.44 229.433 1088.23 227.419C1090.05 225.369 1091.44 222.828 1091.44 219.496H1089.56C1089.56 222.242 1088.44 224.36 1086.83 226.174C1085.18 228.025 1083.11 229.483 1081.22 230.977L1082.38 232.449ZM1091.44 219.496C1091.44 216.106 1089.52 213.166 1086.75 211.899C1083.92 210.606 1080.38 211.129 1077.32 214.3L1078.68 215.6C1081.25 212.928 1083.95 212.684 1085.97 213.605C1088.04 214.553 1089.56 216.807 1089.56 219.496H1091.44ZM1081.22 230.977C1080.56 231.495 1079.97 231.95 1079.41 232.28C1078.84 232.611 1078.39 232.762 1078 232.762V234.637C1078.86 234.637 1079.66 234.306 1080.35 233.899C1081.05 233.492 1081.74 232.954 1082.38 232.449L1081.22 230.977Z" fill="#84C8FF" fill-opacity="0.6"/>
<path d="M1205.67 231.074L1201 233.74L1197 231.74L1192.33 228.407L1189.67 223.74L1188.33 217.74L1191.67 212.407H1197L1201 214.407L1203.67 213.074L1207.67 211.74L1211.67 214.407L1213.67 218.407L1212.33 224.407L1205.67 231.074Z" fill="#0099FF" fill-opacity="0.4"/>
<path d="M1201 214.95L1200.32 215.6C1200.5 215.784 1200.75 215.888 1201 215.888C1201.25 215.888 1201.5 215.784 1201.68 215.6L1201 214.95ZM1197.78 230.977C1195.89 229.483 1193.82 228.025 1192.17 226.174C1190.56 224.36 1189.44 222.242 1189.44 219.496H1187.56C1187.56 222.828 1188.95 225.369 1190.77 227.419C1192.56 229.433 1194.84 231.043 1196.62 232.449L1197.78 230.977ZM1189.44 219.496C1189.44 216.807 1190.96 214.553 1193.03 213.605C1195.05 212.684 1197.75 212.928 1200.32 215.6L1201.68 214.3C1198.62 211.129 1195.08 210.606 1192.25 211.899C1189.48 213.166 1187.56 216.106 1187.56 219.496H1189.44ZM1196.62 232.449C1197.26 232.954 1197.95 233.492 1198.65 233.899C1199.34 234.306 1200.14 234.637 1201 234.637V232.762C1200.61 232.762 1200.16 232.611 1199.59 232.28C1199.03 231.95 1198.44 231.495 1197.78 230.977L1196.62 232.449ZM1205.38 232.449C1207.16 231.043 1209.44 229.433 1211.23 227.419C1213.05 225.369 1214.44 222.828 1214.44 219.496H1212.56C1212.56 222.242 1211.44 224.36 1209.83 226.174C1208.18 228.025 1206.11 229.483 1204.22 230.977L1205.38 232.449ZM1214.44 219.496C1214.44 216.106 1212.52 213.166 1209.75 211.899C1206.92 210.606 1203.38 211.129 1200.32 214.3L1201.68 215.6C1204.25 212.928 1206.95 212.684 1208.97 213.605C1211.04 214.553 1212.56 216.807 1212.56 219.496H1214.44ZM1204.22 230.977C1203.56 231.495 1202.97 231.95 1202.41 232.28C1201.84 232.611 1201.39 232.762 1201 232.762V234.637C1201.86 234.637 1202.66 234.306 1203.35 233.899C1204.05 233.492 1204.74 232.954 1205.38 232.449L1204.22 230.977Z" fill="#84C8FF" fill-opacity="0.6"/>
<path d="M1328.67 231.074L1324 233.74L1320 231.74L1315.33 228.407L1312.67 223.74L1311.33 217.74L1314.67 212.407H1320L1324 214.407L1326.67 213.074L1330.67 211.74L1334.67 214.407L1336.67 218.407L1335.33 224.407L1328.67 231.074Z" fill="#0099FF" fill-opacity="0.4"/>
<path d="M1324 214.95L1323.32 215.6C1323.5 215.784 1323.75 215.888 1324 215.888C1324.25 215.888 1324.5 215.784 1324.68 215.6L1324 214.95ZM1320.78 230.977C1318.89 229.483 1316.82 228.025 1315.17 226.174C1313.56 224.36 1312.44 222.242 1312.44 219.496H1310.56C1310.56 222.828 1311.95 225.369 1313.77 227.419C1315.56 229.433 1317.84 231.043 1319.62 232.449L1320.78 230.977ZM1312.44 219.496C1312.44 216.807 1313.96 214.553 1316.03 213.605C1318.05 212.684 1320.75 212.928 1323.32 215.6L1324.68 214.3C1321.62 211.129 1318.08 210.606 1315.25 211.899C1312.48 213.166 1310.56 216.106 1310.56 219.496H1312.44ZM1319.62 232.449C1320.26 232.954 1320.95 233.492 1321.65 233.899C1322.34 234.306 1323.14 234.637 1324 234.637V232.762C1323.61 232.762 1323.16 232.611 1322.59 232.28C1322.03 231.95 1321.44 231.495 1320.78 230.977L1319.62 232.449ZM1328.38 232.449C1330.16 231.043 1332.44 229.433 1334.23 227.419C1336.05 225.369 1337.44 222.828 1337.44 219.496H1335.56C1335.56 222.242 1334.44 224.36 1332.83 226.174C1331.18 228.025 1329.11 229.483 1327.22 230.977L1328.38 232.449ZM1337.44 219.496C1337.44 216.106 1335.52 213.166 1332.75 211.899C1329.92 210.606 1326.38 211.129 1323.32 214.3L1324.68 215.6C1327.25 212.928 1329.95 212.684 1331.97 213.605C1334.04 214.553 1335.56 216.807 1335.56 219.496H1337.44ZM1327.22 230.977C1326.56 231.495 1325.97 231.95 1325.41 232.28C1324.84 232.611 1324.39 232.762 1324 232.762V234.637C1324.86 234.637 1325.66 234.306 1326.35 233.899C1327.05 233.492 1327.74 232.954 1328.38 232.449L1327.22 230.977Z" fill="#84C8FF" fill-opacity="0.6"/>
<path d="M1451.67 231.074L1447 233.74L1443 231.74L1438.33 228.407L1435.67 223.74L1434.33 217.74L1437.67 212.407H1443L1447 214.407L1449.67 213.074L1453.67 211.74L1457.67 214.407L1459.67 218.407L1458.33 224.407L1451.67 231.074Z" fill="#0099FF" fill-opacity="0.4"/>
<path d="M1447 214.95L1446.32 215.6C1446.5 215.784 1446.75 215.888 1447 215.888C1447.25 215.888 1447.5 215.784 1447.68 215.6L1447 214.95ZM1443.78 230.977C1441.89 229.483 1439.82 228.025 1438.17 226.174C1436.56 224.36 1435.44 222.242 1435.44 219.496H1433.56C1433.56 222.828 1434.95 225.369 1436.77 227.419C1438.56 229.433 1440.84 231.043 1442.62 232.449L1443.78 230.977ZM1435.44 219.496C1435.44 216.807 1436.96 214.553 1439.03 213.605C1441.05 212.684 1443.75 212.928 1446.32 215.6L1447.68 214.3C1444.62 211.129 1441.08 210.606 1438.25 211.899C1435.48 213.166 1433.56 216.106 1433.56 219.496H1435.44ZM1442.62 232.449C1443.26 232.954 1443.95 233.492 1444.65 233.899C1445.34 234.306 1446.14 234.637 1447 234.637V232.762C1446.61 232.762 1446.16 232.611 1445.59 232.28C1445.03 231.95 1444.44 231.495 1443.78 230.977L1442.62 232.449ZM1451.38 232.449C1453.16 231.043 1455.44 229.433 1457.23 227.419C1459.05 225.369 1460.44 222.828 1460.44 219.496H1458.56C1458.56 222.242 1457.44 224.36 1455.83 226.174C1454.18 228.025 1452.11 229.483 1450.22 230.977L1451.38 232.449ZM1460.44 219.496C1460.44 216.106 1458.52 213.166 1455.75 211.899C1452.92 210.606 1449.38 211.129 1446.32 214.3L1447.68 215.6C1450.25 212.928 1452.95 212.684 1454.97 213.605C1457.04 214.553 1458.56 216.807 1458.56 219.496H1460.44ZM1450.22 230.977C1449.56 231.495 1448.97 231.95 1448.41 232.28C1447.84 232.611 1447.39 232.762 1447 232.762V234.637C1447.86 234.637 1448.66 234.306 1449.35 233.899C1450.05 233.492 1450.74 232.954 1451.38 232.449L1450.22 230.977Z" fill="#84C8FF" fill-opacity="0.6"/>
<path d="M1574.67 231.074L1570 233.74L1566 231.74L1561.33 228.407L1558.67 223.74L1557.33 217.74L1560.67 212.407H1566L1570 214.407L1572.67 213.074L1576.67 211.74L1580.67 214.407L1582.67 218.407L1581.33 224.407L1574.67 231.074Z" fill="#0099FF" fill-opacity="0.4"/>
<path d="M1570 214.95L1569.32 215.6C1569.5 215.784 1569.75 215.888 1570 215.888C1570.25 215.888 1570.5 215.784 1570.68 215.6L1570 214.95ZM1566.78 230.977C1564.89 229.483 1562.82 228.025 1561.17 226.174C1559.56 224.36 1558.44 222.242 1558.44 219.496H1556.56C1556.56 222.828 1557.95 225.369 1559.77 227.419C1561.56 229.433 1563.84 231.043 1565.62 232.449L1566.78 230.977ZM1558.44 219.496C1558.44 216.807 1559.96 214.553 1562.03 213.605C1564.05 212.684 1566.75 212.928 1569.32 215.6L1570.68 214.3C1567.62 211.129 1564.08 210.606 1561.25 211.899C1558.48 213.166 1556.56 216.106 1556.56 219.496H1558.44ZM1565.62 232.449C1566.26 232.954 1566.95 233.492 1567.65 233.899C1568.34 234.306 1569.14 234.637 1570 234.637V232.762C1569.61 232.762 1569.16 232.611 1568.59 232.28C1568.03 231.95 1567.44 231.495 1566.78 230.977L1565.62 232.449ZM1574.38 232.449C1576.16 231.043 1578.44 229.433 1580.23 227.419C1582.05 225.369 1583.44 222.828 1583.44 219.496H1581.56C1581.56 222.242 1580.44 224.36 1578.83 226.174C1577.18 228.025 1575.11 229.483 1573.22 230.977L1574.38 232.449ZM1583.44 219.496C1583.44 216.106 1581.52 213.166 1578.75 211.899C1575.92 210.606 1572.38 211.129 1569.32 214.3L1570.68 215.6C1573.25 212.928 1575.95 212.684 1577.97 213.605C1580.04 214.553 1581.56 216.807 1581.56 219.496H1583.44ZM1573.22 230.977C1572.56 231.495 1571.97 231.95 1571.41 232.28C1570.84 232.611 1570.39 232.762 1570 232.762V234.637C1570.86 234.637 1571.66 234.306 1572.35 233.899C1573.05 233.492 1573.74 232.954 1574.38 232.449L1573.22 230.977Z" fill="#84C8FF" fill-opacity="0.6"/>
</g>
</svg>
