<svg width="1463" height="236" viewBox="0 0 1463 236" fill="none" xmlns="http://www.w3.org/2000/svg">
<path d="M1463 236L0 236L2.52759e-05 20C2.65685e-05 8.9543 8.95437 -3.41442e-06 20 -2.69301e-06L1443 9.02465e-05C1454.05 9.09679e-05 1463 8.95439 1463 20.0001L1463 236Z" fill="black" fill-opacity="0.2"/>
<path d="M22.0195 6.26868C23.0151 4.97081 24.9849 4.97081 25.9805 6.26868L26.0762 6.40344L31.6787 14.757L37.8301 23.5695C38.4301 24.429 38.4301 25.5712 37.8301 26.4308L31.6807 35.2404L26.0762 43.5968C25.0858 45.0736 22.9142 45.0736 21.9238 43.5968L16.3193 35.2404H16.3184L10.1699 26.4308C9.56992 25.5712 9.56992 24.4291 10.1699 23.5695L16.3203 14.757L21.9238 6.40344L22.0195 6.26868Z" fill="#092537" stroke="#1F3C50" stroke-width="3"/>
<path d="M145.02 6.26868C146.015 4.97081 147.985 4.97081 148.98 6.26868L149.076 6.40344L154.679 14.757L160.83 23.5695C161.43 24.429 161.43 25.5712 160.83 26.4308L154.681 35.2404L149.076 43.5968C148.086 45.0736 145.914 45.0736 144.924 43.5968L139.319 35.2404H139.318L133.17 26.4308C132.57 25.5712 132.57 24.4291 133.17 23.5695L139.32 14.757L144.924 6.40344L145.02 6.26868Z" fill="#092537" stroke="#1F3C50" stroke-width="3"/>
<path d="M268.02 6.26868C269.015 4.97081 270.985 4.97081 271.98 6.26868L272.076 6.40344L277.679 14.757L283.83 23.5695C284.43 24.429 284.43 25.5712 283.83 26.4308L277.681 35.2404L272.076 43.5968C271.086 45.0736 268.914 45.0736 267.924 43.5968L262.319 35.2404H262.318L256.17 26.4308C255.57 25.5712 255.57 24.4291 256.17 23.5695L262.32 14.757L267.924 6.40344L268.02 6.26868Z" fill="#092537" stroke="#1F3C50" stroke-width="3"/>
<path d="M391.02 6.26868C392.015 4.97081 393.985 4.97081 394.98 6.26868L395.076 6.40344L400.679 14.757L406.83 23.5695C407.43 24.429 407.43 25.5712 406.83 26.4308L400.681 35.2404L395.076 43.5968C394.086 45.0736 391.914 45.0736 390.924 43.5968L385.319 35.2404H385.318L379.17 26.4308C378.57 25.5712 378.57 24.4291 379.17 23.5695L385.32 14.757L390.924 6.40344L391.02 6.26868Z" fill="#092537" stroke="#1F3C50" stroke-width="3"/>
<path d="M514.02 6.26868C515.015 4.97081 516.985 4.97081 517.98 6.26868L518.076 6.40344L523.679 14.757L529.83 23.5695C530.43 24.429 530.43 25.5712 529.83 26.4308L523.681 35.2404L518.076 43.5968C517.086 45.0736 514.914 45.0736 513.924 43.5968L508.319 35.2404H508.318L502.17 26.4308C501.57 25.5712 501.57 24.4291 502.17 23.5695L508.32 14.757L513.924 6.40344L514.02 6.26868Z" fill="#092537" stroke="#1F3C50" stroke-width="3"/>
<path d="M637.02 6.26868C638.015 4.97081 639.985 4.97081 640.98 6.26868L641.076 6.40344L646.679 14.757L652.83 23.5695C653.43 24.429 653.43 25.5712 652.83 26.4308L646.681 35.2404L641.076 43.5968C640.086 45.0736 637.914 45.0736 636.924 43.5968L631.319 35.2404H631.318L625.17 26.4308C624.57 25.5712 624.57 24.4291 625.17 23.5695L631.32 14.757L636.924 6.40344L637.02 6.26868Z" fill="#092537" stroke="#1F3C50" stroke-width="3"/>
<path d="M760.02 6.26868C761.015 4.97081 762.985 4.97081 763.98 6.26868L764.076 6.40344L769.679 14.757L775.83 23.5695C776.43 24.429 776.43 25.5712 775.83 26.4308L769.681 35.2404L764.076 43.5968C763.086 45.0736 760.914 45.0736 759.924 43.5968L754.319 35.2404H754.318L748.17 26.4308C747.57 25.5712 747.57 24.4291 748.17 23.5695L754.32 14.757L759.924 6.40344L760.02 6.26868Z" fill="#092537" stroke="#1F3C50" stroke-width="3"/>
<path d="M883.02 6.26868C884.015 4.97081 885.985 4.97081 886.98 6.26868L887.076 6.40344L892.679 14.757L898.83 23.5695C899.43 24.429 899.43 25.5712 898.83 26.4308L892.681 35.2404L887.076 43.5968C886.086 45.0736 883.914 45.0736 882.924 43.5968L877.319 35.2404H877.318L871.17 26.4308C870.57 25.5712 870.57 24.4291 871.17 23.5695L877.32 14.757L882.924 6.40344L883.02 6.26868Z" fill="#092537" stroke="#1F3C50" stroke-width="3"/>
<path d="M1006.02 6.26868C1007.02 4.97081 1008.98 4.97081 1009.98 6.26868L1010.08 6.40344L1015.68 14.757L1021.83 23.5695C1022.43 24.429 1022.43 25.5712 1021.83 26.4308L1015.68 35.2404L1010.08 43.5968C1009.09 45.0736 1006.91 45.0736 1005.92 43.5968L1000.32 35.2404H1000.32L994.17 26.4308C993.57 25.5712 993.57 24.4291 994.17 23.5695L1000.32 14.757L1005.92 6.40344L1006.02 6.26868Z" fill="#092537" stroke="#1F3C50" stroke-width="3"/>
<path d="M1129.02 6.26868C1130.02 4.97081 1131.98 4.97081 1132.98 6.26868L1133.08 6.40344L1138.68 14.757L1144.83 23.5695C1145.43 24.429 1145.43 25.5712 1144.83 26.4308L1138.68 35.2404L1133.08 43.5968C1132.09 45.0736 1129.91 45.0736 1128.92 43.5968L1123.32 35.2404H1123.32L1117.17 26.4308C1116.57 25.5712 1116.57 24.4291 1117.17 23.5695L1123.32 14.757L1128.92 6.40344L1129.02 6.26868Z" fill="#092537" stroke="#1F3C50" stroke-width="3"/>
<path d="M1252.02 6.26868C1253.02 4.97081 1254.98 4.97081 1255.98 6.26868L1256.08 6.40344L1261.68 14.757L1267.83 23.5695C1268.43 24.429 1268.43 25.5712 1267.83 26.4308L1261.68 35.2404L1256.08 43.5968C1255.09 45.0736 1252.91 45.0736 1251.92 43.5968L1246.32 35.2404H1246.32L1240.17 26.4308C1239.57 25.5712 1239.57 24.4291 1240.17 23.5695L1246.32 14.757L1251.92 6.40344L1252.02 6.26868Z" fill="#092537" stroke="#1F3C50" stroke-width="3"/>
<path d="M1375.02 6.26868C1376.02 4.97081 1377.98 4.97081 1378.98 6.26868L1379.08 6.40344L1384.68 14.757L1390.83 23.5695C1391.43 24.429 1391.43 25.5712 1390.83 26.4308L1384.68 35.2404L1379.08 43.5968C1378.09 45.0736 1375.91 45.0736 1374.92 43.5968L1369.32 35.2404H1369.32L1363.17 26.4308C1362.57 25.5712 1362.57 24.4291 1363.17 23.5695L1369.32 14.757L1374.92 6.40344L1375.02 6.26868Z" fill="#092537" stroke="#1F3C50" stroke-width="3"/>
<path d="M22.0195 128.269C23.0151 126.971 24.9849 126.971 25.9805 128.269L26.0762 128.403L31.6787 136.757L37.8301 145.569C38.4301 146.429 38.4301 147.571 37.8301 148.431L31.6807 157.24L26.0762 165.597C25.0858 167.074 22.9142 167.074 21.9238 165.597L16.3193 157.24H16.3184L10.1699 148.431C9.56992 147.571 9.56992 146.429 10.1699 145.569L16.3203 136.757L21.9238 128.403L22.0195 128.269Z" fill="#092537" stroke="#1F3C50" stroke-width="3"/>
<path d="M145.02 128.269C146.015 126.971 147.985 126.971 148.98 128.269L149.076 128.403L154.679 136.757L160.83 145.569C161.43 146.429 161.43 147.571 160.83 148.431L154.681 157.24L149.076 165.597C148.086 167.074 145.914 167.074 144.924 165.597L139.319 157.24H139.318L133.17 148.431C132.57 147.571 132.57 146.429 133.17 145.569L139.32 136.757L144.924 128.403L145.02 128.269Z" fill="#092537" stroke="#1F3C50" stroke-width="3"/>
<path d="M268.02 128.269C269.015 126.971 270.985 126.971 271.98 128.269L272.076 128.403L277.679 136.757L283.83 145.569C284.43 146.429 284.43 147.571 283.83 148.431L277.681 157.24L272.076 165.597C271.086 167.074 268.914 167.074 267.924 165.597L262.319 157.24H262.318L256.17 148.431C255.57 147.571 255.57 146.429 256.17 145.569L262.32 136.757L267.924 128.403L268.02 128.269Z" fill="#092537" stroke="#1F3C50" stroke-width="3"/>
<path d="M391.02 128.269C392.015 126.971 393.985 126.971 394.98 128.269L395.076 128.403L400.679 136.757L406.83 145.569C407.43 146.429 407.43 147.571 406.83 148.431L400.681 157.24L395.076 165.597C394.086 167.074 391.914 167.074 390.924 165.597L385.319 157.24H385.318L379.17 148.431C378.57 147.571 378.57 146.429 379.17 145.569L385.32 136.757L390.924 128.403L391.02 128.269Z" fill="#092537" stroke="#1F3C50" stroke-width="3"/>
<path d="M514.02 128.269C515.015 126.971 516.985 126.971 517.98 128.269L518.076 128.403L523.679 136.757L529.83 145.569C530.43 146.429 530.43 147.571 529.83 148.431L523.681 157.24L518.076 165.597C517.086 167.074 514.914 167.074 513.924 165.597L508.319 157.24H508.318L502.17 148.431C501.57 147.571 501.57 146.429 502.17 145.569L508.32 136.757L513.924 128.403L514.02 128.269Z" fill="#092537" stroke="#1F3C50" stroke-width="3"/>
<path d="M637.02 128.269C638.015 126.971 639.985 126.971 640.98 128.269L641.076 128.403L646.679 136.757L652.83 145.569C653.43 146.429 653.43 147.571 652.83 148.431L646.681 157.24L641.076 165.597C640.086 167.074 637.914 167.074 636.924 165.597L631.319 157.24H631.318L625.17 148.431C624.57 147.571 624.57 146.429 625.17 145.569L631.32 136.757L636.924 128.403L637.02 128.269Z" fill="#092537" stroke="#1F3C50" stroke-width="3"/>
<path d="M760.02 128.269C761.015 126.971 762.985 126.971 763.98 128.269L764.076 128.403L769.679 136.757L775.83 145.569C776.43 146.429 776.43 147.571 775.83 148.431L769.681 157.24L764.076 165.597C763.086 167.074 760.914 167.074 759.924 165.597L754.319 157.24H754.318L748.17 148.431C747.57 147.571 747.57 146.429 748.17 145.569L754.32 136.757L759.924 128.403L760.02 128.269Z" fill="#092537" stroke="#1F3C50" stroke-width="3"/>
<path d="M883.02 128.269C884.015 126.971 885.985 126.971 886.98 128.269L887.076 128.403L892.679 136.757L898.83 145.569C899.43 146.429 899.43 147.571 898.83 148.431L892.681 157.24L887.076 165.597C886.086 167.074 883.914 167.074 882.924 165.597L877.319 157.24H877.318L871.17 148.431C870.57 147.571 870.57 146.429 871.17 145.569L877.32 136.757L882.924 128.403L883.02 128.269Z" fill="#092537" stroke="#1F3C50" stroke-width="3"/>
<path d="M1006.02 128.269C1007.02 126.971 1008.98 126.971 1009.98 128.269L1010.08 128.403L1015.68 136.757L1021.83 145.569C1022.43 146.429 1022.43 147.571 1021.83 148.431L1015.68 157.24L1010.08 165.597C1009.09 167.074 1006.91 167.074 1005.92 165.597L1000.32 157.24H1000.32L994.17 148.431C993.57 147.571 993.57 146.429 994.17 145.569L1000.32 136.757L1005.92 128.403L1006.02 128.269Z" fill="#092537" stroke="#1F3C50" stroke-width="3"/>
<path d="M1129.02 128.269C1130.02 126.971 1131.98 126.971 1132.98 128.269L1133.08 128.403L1138.68 136.757L1144.83 145.569C1145.43 146.429 1145.43 147.571 1144.83 148.431L1138.68 157.24L1133.08 165.597C1132.09 167.074 1129.91 167.074 1128.92 165.597L1123.32 157.24H1123.32L1117.17 148.431C1116.57 147.571 1116.57 146.429 1117.17 145.569L1123.32 136.757L1128.92 128.403L1129.02 128.269Z" fill="#092537" stroke="#1F3C50" stroke-width="3"/>
<path d="M1252.02 128.269C1253.02 126.971 1254.98 126.971 1255.98 128.269L1256.08 128.403L1261.68 136.757L1267.83 145.569C1268.43 146.429 1268.43 147.571 1267.83 148.431L1261.68 157.24L1256.08 165.597C1255.09 167.074 1252.91 167.074 1251.92 165.597L1246.32 157.24H1246.32L1240.17 148.431C1239.57 147.571 1239.57 146.429 1240.17 145.569L1246.32 136.757L1251.92 128.403L1252.02 128.269Z" fill="#092537" stroke="#1F3C50" stroke-width="3"/>
<path d="M1375.02 128.269C1376.02 126.971 1377.98 126.971 1378.98 128.269L1379.08 128.403L1384.68 136.757L1390.83 145.569C1391.43 146.429 1391.43 147.571 1390.83 148.431L1384.68 157.24L1379.08 165.597C1378.09 167.074 1375.91 167.074 1374.92 165.597L1369.32 157.24H1369.32L1363.17 148.431C1362.57 147.571 1362.57 146.429 1363.17 145.569L1369.32 136.757L1374.92 128.403L1375.02 128.269Z" fill="#092537" stroke="#1F3C50" stroke-width="3"/>
<path d="M83.0195 67.2687C84.0151 65.9708 85.9849 65.9708 86.9805 67.2687L87.0762 67.4034L92.6787 75.757L98.8301 84.5695C99.4301 85.429 99.4301 86.5712 98.8301 87.4308L92.6807 96.2404L87.0762 104.597C86.0858 106.074 83.9142 106.074 82.9238 104.597L77.3193 96.2404H77.3184L71.1699 87.4308C70.5699 86.5712 70.5699 85.4291 71.1699 84.5695L77.3203 75.757L82.9238 67.4034L83.0195 67.2687Z" fill="#092537" stroke="#1F3C50" stroke-width="3"/>
<path d="M206.02 67.2687C207.015 65.9708 208.985 65.9708 209.98 67.2687L210.076 67.4034L215.679 75.757L221.83 84.5695C222.43 85.429 222.43 86.5712 221.83 87.4308L215.681 96.2404L210.076 104.597C209.086 106.074 206.914 106.074 205.924 104.597L200.319 96.2404H200.318L194.17 87.4308C193.57 86.5712 193.57 85.4291 194.17 84.5695L200.32 75.757L205.924 67.4034L206.02 67.2687Z" fill="#092537" stroke="#1F3C50" stroke-width="3"/>
<path d="M329.02 67.2687C330.015 65.9708 331.985 65.9708 332.98 67.2687L333.076 67.4034L338.679 75.757L344.83 84.5695C345.43 85.429 345.43 86.5712 344.83 87.4308L338.681 96.2404L333.076 104.597C332.086 106.074 329.914 106.074 328.924 104.597L323.319 96.2404H323.318L317.17 87.4308C316.57 86.5712 316.57 85.4291 317.17 84.5695L323.32 75.757L328.924 67.4034L329.02 67.2687Z" fill="#092537" stroke="#1F3C50" stroke-width="3"/>
<path d="M452.02 67.2687C453.015 65.9708 454.985 65.9708 455.98 67.2687L456.076 67.4034L461.679 75.757L467.83 84.5695C468.43 85.429 468.43 86.5712 467.83 87.4308L461.681 96.2404L456.076 104.597C455.086 106.074 452.914 106.074 451.924 104.597L446.319 96.2404H446.318L440.17 87.4308C439.57 86.5712 439.57 85.4291 440.17 84.5695L446.32 75.757L451.924 67.4034L452.02 67.2687Z" fill="#092537" stroke="#1F3C50" stroke-width="3"/>
<path d="M575.02 67.2687C576.015 65.9708 577.985 65.9708 578.98 67.2687L579.076 67.4034L584.679 75.757L590.83 84.5695C591.43 85.429 591.43 86.5712 590.83 87.4308L584.681 96.2404L579.076 104.597C578.086 106.074 575.914 106.074 574.924 104.597L569.319 96.2404H569.318L563.17 87.4308C562.57 86.5712 562.57 85.4291 563.17 84.5695L569.32 75.757L574.924 67.4034L575.02 67.2687Z" fill="#092537" stroke="#1F3C50" stroke-width="3"/>
<path d="M698.02 67.2687C699.015 65.9708 700.985 65.9708 701.98 67.2687L702.076 67.4034L707.679 75.757L713.83 84.5695C714.43 85.429 714.43 86.5712 713.83 87.4308L707.681 96.2404L702.076 104.597C701.086 106.074 698.914 106.074 697.924 104.597L692.319 96.2404H692.318L686.17 87.4308C685.57 86.5712 685.57 85.4291 686.17 84.5695L692.32 75.757L697.924 67.4034L698.02 67.2687Z" fill="#092537" stroke="#1F3C50" stroke-width="3"/>
<path d="M821.02 67.2687C822.015 65.9708 823.985 65.9708 824.98 67.2687L825.076 67.4034L830.679 75.757L836.83 84.5695C837.43 85.429 837.43 86.5712 836.83 87.4308L830.681 96.2404L825.076 104.597C824.086 106.074 821.914 106.074 820.924 104.597L815.319 96.2404H815.318L809.17 87.4308C808.57 86.5712 808.57 85.4291 809.17 84.5695L815.32 75.757L820.924 67.4034L821.02 67.2687Z" fill="#092537" stroke="#1F3C50" stroke-width="3"/>
<path d="M944.02 67.2687C945.015 65.9708 946.985 65.9708 947.98 67.2687L948.076 67.4034L953.679 75.757L959.83 84.5695C960.43 85.429 960.43 86.5712 959.83 87.4308L953.681 96.2404L948.076 104.597C947.086 106.074 944.914 106.074 943.924 104.597L938.319 96.2404H938.318L932.17 87.4308C931.57 86.5712 931.57 85.4291 932.17 84.5695L938.32 75.757L943.924 67.4034L944.02 67.2687Z" fill="#092537" stroke="#1F3C50" stroke-width="3"/>
<path d="M1067.02 67.2687C1068.02 65.9708 1069.98 65.9708 1070.98 67.2687L1071.08 67.4034L1076.68 75.757L1082.83 84.5695C1083.43 85.429 1083.43 86.5712 1082.83 87.4308L1076.68 96.2404L1071.08 104.597C1070.09 106.074 1067.91 106.074 1066.92 104.597L1061.32 96.2404H1061.32L1055.17 87.4308C1054.57 86.5712 1054.57 85.4291 1055.17 84.5695L1061.32 75.757L1066.92 67.4034L1067.02 67.2687Z" fill="#092537" stroke="#1F3C50" stroke-width="3"/>
<path d="M1190.02 67.2687C1191.02 65.9708 1192.98 65.9708 1193.98 67.2687L1194.08 67.4034L1199.68 75.757L1205.83 84.5695C1206.43 85.429 1206.43 86.5712 1205.83 87.4308L1199.68 96.2404L1194.08 104.597C1193.09 106.074 1190.91 106.074 1189.92 104.597L1184.32 96.2404H1184.32L1178.17 87.4308C1177.57 86.5712 1177.57 85.4291 1178.17 84.5695L1184.32 75.757L1189.92 67.4034L1190.02 67.2687Z" fill="#092537" stroke="#1F3C50" stroke-width="3"/>
<path d="M1313.02 67.2687C1314.02 65.9708 1315.98 65.9708 1316.98 67.2687L1317.08 67.4034L1322.68 75.757L1328.83 84.5695C1329.43 85.429 1329.43 86.5712 1328.83 87.4308L1322.68 96.2404L1317.08 104.597C1316.09 106.074 1313.91 106.074 1312.92 104.597L1307.32 96.2404H1307.32L1301.17 87.4308C1300.57 86.5712 1300.57 85.4291 1301.17 84.5695L1307.32 75.757L1312.92 67.4034L1313.02 67.2687Z" fill="#092537" stroke="#1F3C50" stroke-width="3"/>
<path d="M1436.02 67.2687C1437.02 65.9708 1438.98 65.9708 1439.98 67.2687L1440.08 67.4034L1445.68 75.757L1451.83 84.5695C1452.43 85.429 1452.43 86.5712 1451.83 87.4308L1445.68 96.2404L1440.08 104.597C1439.09 106.074 1436.91 106.074 1435.92 104.597L1430.32 96.2404H1430.32L1424.17 87.4308C1423.57 86.5712 1423.57 85.4291 1424.17 84.5695L1430.32 75.757L1435.92 67.4034L1436.02 67.2687Z" fill="#092537" stroke="#1F3C50" stroke-width="3"/>
<path d="M83.0195 189.269C84.0151 187.971 85.9849 187.971 86.9805 189.269L87.0762 189.403L92.6787 197.757L98.8301 206.569C99.4301 207.429 99.4301 208.571 98.8301 209.431L92.6807 218.24L87.0762 226.597C86.0858 228.074 83.9142 228.074 82.9238 226.597L77.3193 218.24H77.3184L71.1699 209.431C70.5699 208.571 70.5699 207.429 71.1699 206.569L77.3203 197.757L82.9238 189.403L83.0195 189.269Z" fill="#092537" stroke="#1F3C50" stroke-width="3"/>
<path d="M206.02 189.269C207.015 187.971 208.985 187.971 209.98 189.269L210.076 189.403L215.679 197.757L221.83 206.569C222.43 207.429 222.43 208.571 221.83 209.431L215.681 218.24L210.076 226.597C209.086 228.074 206.914 228.074 205.924 226.597L200.319 218.24H200.318L194.17 209.431C193.57 208.571 193.57 207.429 194.17 206.569L200.32 197.757L205.924 189.403L206.02 189.269Z" fill="#092537" stroke="#1F3C50" stroke-width="3"/>
<path d="M329.02 189.269C330.015 187.971 331.985 187.971 332.98 189.269L333.076 189.403L338.679 197.757L344.83 206.569C345.43 207.429 345.43 208.571 344.83 209.431L338.681 218.24L333.076 226.597C332.086 228.074 329.914 228.074 328.924 226.597L323.319 218.24H323.318L317.17 209.431C316.57 208.571 316.57 207.429 317.17 206.569L323.32 197.757L328.924 189.403L329.02 189.269Z" fill="#092537" stroke="#1F3C50" stroke-width="3"/>
<path d="M452.02 189.269C453.015 187.971 454.985 187.971 455.98 189.269L456.076 189.403L461.679 197.757L467.83 206.569C468.43 207.429 468.43 208.571 467.83 209.431L461.681 218.24L456.076 226.597C455.086 228.074 452.914 228.074 451.924 226.597L446.319 218.24H446.318L440.17 209.431C439.57 208.571 439.57 207.429 440.17 206.569L446.32 197.757L451.924 189.403L452.02 189.269Z" fill="#092537" stroke="#1F3C50" stroke-width="3"/>
<path d="M575.02 189.269C576.015 187.971 577.985 187.971 578.98 189.269L579.076 189.403L584.679 197.757L590.83 206.569C591.43 207.429 591.43 208.571 590.83 209.431L584.681 218.24L579.076 226.597C578.086 228.074 575.914 228.074 574.924 226.597L569.319 218.24H569.318L563.17 209.431C562.57 208.571 562.57 207.429 563.17 206.569L569.32 197.757L574.924 189.403L575.02 189.269Z" fill="#092537" stroke="#1F3C50" stroke-width="3"/>
<path d="M698.02 189.269C699.015 187.971 700.985 187.971 701.98 189.269L702.076 189.403L707.679 197.757L713.83 206.569C714.43 207.429 714.43 208.571 713.83 209.431L707.681 218.24L702.076 226.597C701.086 228.074 698.914 228.074 697.924 226.597L692.319 218.24H692.318L686.17 209.431C685.57 208.571 685.57 207.429 686.17 206.569L692.32 197.757L697.924 189.403L698.02 189.269Z" fill="#092537" stroke="#1F3C50" stroke-width="3"/>
<path d="M821.02 189.269C822.015 187.971 823.985 187.971 824.98 189.269L825.076 189.403L830.679 197.757L836.83 206.569C837.43 207.429 837.43 208.571 836.83 209.431L830.681 218.24L825.076 226.597C824.086 228.074 821.914 228.074 820.924 226.597L815.319 218.24H815.318L809.17 209.431C808.57 208.571 808.57 207.429 809.17 206.569L815.32 197.757L820.924 189.403L821.02 189.269Z" fill="#092537" stroke="#1F3C50" stroke-width="3"/>
<path d="M944.02 189.269C945.015 187.971 946.985 187.971 947.98 189.269L948.076 189.403L953.679 197.757L959.83 206.569C960.43 207.429 960.43 208.571 959.83 209.431L953.681 218.24L948.076 226.597C947.086 228.074 944.914 228.074 943.924 226.597L938.319 218.24H938.318L932.17 209.431C931.57 208.571 931.57 207.429 932.17 206.569L938.32 197.757L943.924 189.403L944.02 189.269Z" fill="#092537" stroke="#1F3C50" stroke-width="3"/>
<path d="M1067.02 189.269C1068.02 187.971 1069.98 187.971 1070.98 189.269L1071.08 189.403L1076.68 197.757L1082.83 206.569C1083.43 207.429 1083.43 208.571 1082.83 209.431L1076.68 218.24L1071.08 226.597C1070.09 228.074 1067.91 228.074 1066.92 226.597L1061.32 218.24H1061.32L1055.17 209.431C1054.57 208.571 1054.57 207.429 1055.17 206.569L1061.32 197.757L1066.92 189.403L1067.02 189.269Z" fill="#092537" stroke="#1F3C50" stroke-width="3"/>
<path d="M1190.02 189.269C1191.02 187.971 1192.98 187.971 1193.98 189.269L1194.08 189.403L1199.68 197.757L1205.83 206.569C1206.43 207.429 1206.43 208.571 1205.83 209.431L1199.68 218.24L1194.08 226.597C1193.09 228.074 1190.91 228.074 1189.92 226.597L1184.32 218.24H1184.32L1178.17 209.431C1177.57 208.571 1177.57 207.429 1178.17 206.569L1184.32 197.757L1189.92 189.403L1190.02 189.269Z" fill="#092537" stroke="#1F3C50" stroke-width="3"/>
<path d="M1313.02 189.269C1314.02 187.971 1315.98 187.971 1316.98 189.269L1317.08 189.403L1322.68 197.757L1328.83 206.569C1329.43 207.429 1329.43 208.571 1328.83 209.431L1322.68 218.24L1317.08 226.597C1316.09 228.074 1313.91 228.074 1312.92 226.597L1307.32 218.24H1307.32L1301.17 209.431C1300.57 208.571 1300.57 207.429 1301.17 206.569L1307.32 197.757L1312.92 189.403L1313.02 189.269Z" fill="#092537" stroke="#1F3C50" stroke-width="3"/>
<path d="M1436.02 189.269C1437.02 187.971 1438.98 187.971 1439.98 189.269L1440.08 189.403L1445.68 197.757L1451.83 206.569C1452.43 207.429 1452.43 208.571 1451.83 209.431L1445.68 218.24L1440.08 226.597C1439.09 228.074 1436.91 228.074 1435.92 226.597L1430.32 218.24H1430.32L1424.17 209.431C1423.57 208.571 1423.57 207.429 1424.17 206.569L1430.32 197.757L1435.92 189.403L1436.02 189.269Z" fill="#092537" stroke="#1F3C50" stroke-width="3"/>
</svg>
