<svg width="180" height="181" viewBox="0 0 180 181" fill="none" xmlns="http://www.w3.org/2000/svg">
<path d="M90 0.5C139.43 0.5 179.5 40.6223 179.5 90.1143C179.5 139.606 139.43 179.729 90 179.729C40.5699 179.729 0.5 139.606 0.5 90.1143C0.500099 40.6223 40.57 0.5 90 0.5Z" fill="url(#paint0_linear_2573_35673)" stroke="#34CFFE"/>
<g opacity="0.4" filter="url(#filter0_f_2573_35673)">
<path d="M75 125C79.9706 125 84 120.971 84 116C84 111.029 79.9706 107 75 107C70.0294 107 66 111.029 66 116C66 120.971 70.0294 125 75 125Z" fill="#003CFF" fill-opacity="0.92"/>
<g filter="url(#filter1_f_2573_35673)">
<path d="M65.5 96C72.4036 96 78 90.6274 78 84C78 77.3726 72.4036 72 65.5 72C58.5964 72 53 77.3726 53 84C53 90.6274 58.5964 96 65.5 96Z" fill="#0084FF" fill-opacity="0.89"/>
</g>
<g filter="url(#filter2_f_2573_35673)">
<path d="M59.5 119C66.4036 119 72 113.627 72 107C72 100.373 66.4036 95 59.5 95C52.5964 95 47 100.373 47 107C47 113.627 52.5964 119 59.5 119Z" fill="#0084FF" fill-opacity="0.89"/>
</g>
<g filter="url(#filter3_f_2573_35673)">
<path d="M105.5 96C117.374 96 127 86.598 127 75C127 63.402 117.374 54 105.5 54C93.6259 54 84 63.402 84 75C84 86.598 93.6259 96 105.5 96Z" fill="#00AEFF" fill-opacity="0.96"/>
</g>
<g filter="url(#filter4_f_2573_35673)">
<path d="M93.5 107C102.06 107 109 100.284 109 92C109 83.7157 102.06 77 93.5 77C84.9396 77 78 83.7157 78 92C78 100.284 84.9396 107 93.5 107Z" fill="#00AEFF" fill-opacity="0.96"/>
</g>
<g filter="url(#filter5_f_2573_35673)">
<path d="M90.5 120C99.0604 120 106 113.284 106 105C106 96.7157 99.0604 90 90.5 90C81.9396 90 75 96.7157 75 105C75 113.284 81.9396 120 90.5 120Z" fill="#00AEFF" fill-opacity="0.96"/>
</g>
</g>
<path d="M89.7886 87.998L113.08 64.1123" stroke="#64A3FE" stroke-width="3" stroke-linecap="round" stroke-linejoin="round"/>
<path d="M122.838 67.8037C122.403 68.2121 121.891 68.5299 121.332 68.7384C120.773 68.947 120.178 69.0422 119.581 69.0185C118.985 68.9948 118.4 68.8527 117.859 68.6004C117.318 68.3482 116.833 67.9908 116.432 67.5491L109.771 60.761C108.888 59.9096 108.368 58.7498 108.321 57.5242C108.274 56.2985 108.702 55.102 109.516 54.1849C110.153 53.3168 111.042 52.6652 112.062 52.3182L132.299 46.124C133.051 45.9197 133.845 45.9264 134.593 46.1435C135.341 46.3605 136.016 46.7794 136.542 47.3544C136.965 47.7229 137.312 48.1719 137.56 48.6753C137.809 49.1787 137.956 49.7264 137.991 50.2868C138.027 50.8472 137.951 51.4091 137.767 51.9399C137.584 52.4706 137.297 52.9598 136.923 53.3789L122.838 67.8037Z" stroke="url(#paint1_linear_2573_35673)" stroke-width="3" stroke-linecap="round" stroke-linejoin="round"/>
<path d="M86.0146 84.2229C84.6862 82.8021 83.7011 81.096 83.1347 79.2353C82.5683 77.3745 82.4359 75.4088 82.7477 73.489C83.2598 70.5093 84.2789 67.6394 85.76 65.0038C86.2742 64.0639 86.4736 62.9839 86.3285 61.9223C86.1834 60.8608 85.7015 59.8739 84.9539 59.1066C84.5139 58.6431 83.9845 58.2741 83.3973 58.0219C82.8101 57.7697 82.1775 57.6396 81.5386 57.6396C80.8996 57.6396 80.2673 57.7697 79.6801 58.0219C79.093 58.2741 78.5633 58.6431 78.1234 59.1066C74.1181 63.007 71.3701 68.0154 70.2321 73.489C69.3411 77.9437 65.9895 84.0108 61.7469 84.0532C59.1403 84.0672 56.5635 84.6086 54.1711 85.6434C51.7789 86.6786 49.6204 88.1864 47.8254 90.0765C46.0304 91.9665 44.6359 94.2003 43.7255 96.6427C42.8152 99.0852 42.4078 101.686 42.5279 104.29C42.5894 111.111 45.3327 117.634 50.1646 122.449L54.7466 127.201C57.0265 129.626 59.7719 131.568 62.8189 132.909C65.8658 134.25 69.1519 134.964 72.4807 135.007C75.064 135.052 77.6303 134.58 80.0281 133.617C82.4257 132.654 84.6064 131.222 86.4414 129.402C88.2763 127.583 89.7281 125.415 90.7115 123.026C91.6946 120.636 92.1892 118.074 92.1663 115.491C92.1663 110.782 97.2575 107.854 101.627 108.024C104.18 108.231 106.746 107.858 109.135 106.932C111.522 106.006 113.67 104.552 115.416 102.678C116.022 102.03 116.435 101.225 116.607 100.355C116.78 99.4844 116.705 98.5829 116.391 97.753C116.078 96.9228 115.538 96.1968 114.833 95.6576C114.129 95.1184 113.287 94.7875 112.404 94.7022C98.6575 93.5567 95.7301 94.0234 92.0391 90.205L86.0146 84.2229Z" stroke="url(#paint2_linear_2573_35673)" stroke-width="3" stroke-linecap="round" stroke-linejoin="round"/>
<path d="M75.4864 93.8105L84.2686 102.805" stroke="#64A3FE" stroke-width="3" stroke-linecap="round" stroke-linejoin="round"/>
<path d="M60.2153 111.926C60.2153 112.773 60.3777 113.612 60.6933 114.394C61.0088 115.177 61.4713 115.888 62.0544 116.486C62.6375 117.085 63.3296 117.56 64.0915 117.884C64.8533 118.208 65.6698 118.375 66.4944 118.375C67.3189 118.375 68.1354 118.208 68.8973 117.884C69.6591 117.56 70.3513 117.085 70.9343 116.486C71.5174 115.888 71.9799 115.177 72.2954 114.394C72.611 113.612 72.7734 112.773 72.7734 111.926C72.7734 111.079 72.611 110.241 72.2954 109.459C71.9799 108.676 71.5174 107.965 70.9343 107.366C70.3513 106.768 69.6591 106.293 68.8973 105.968C68.1354 105.645 67.3189 105.478 66.4944 105.478C65.6698 105.478 64.8533 105.645 64.0915 105.968C63.3296 106.293 62.6375 106.768 62.0544 107.366C61.4713 107.965 61.0088 108.676 60.6933 109.459C60.3777 110.241 60.2153 111.079 60.2153 111.926Z" stroke="#64A3FE" stroke-width="3" stroke-linecap="round" stroke-linejoin="round"/>
<defs>
<filter id="filter0_f_2573_35673" x="27.7" y="34.7" width="118.6" height="109.6" filterUnits="userSpaceOnUse" color-interpolation-filters="sRGB">
<feFlood flood-opacity="0" result="BackgroundImageFix"/>
<feBlend mode="normal" in="SourceGraphic" in2="BackgroundImageFix" result="shape"/>
<feGaussianBlur stdDeviation="9.65" result="effect1_foregroundBlur_2573_35673"/>
</filter>
<filter id="filter1_f_2573_35673" x="49" y="68" width="33" height="32" filterUnits="userSpaceOnUse" color-interpolation-filters="sRGB">
<feFlood flood-opacity="0" result="BackgroundImageFix"/>
<feBlend mode="normal" in="SourceGraphic" in2="BackgroundImageFix" result="shape"/>
<feGaussianBlur stdDeviation="2" result="effect1_foregroundBlur_2573_35673"/>
</filter>
<filter id="filter2_f_2573_35673" x="43" y="91" width="33" height="32" filterUnits="userSpaceOnUse" color-interpolation-filters="sRGB">
<feFlood flood-opacity="0" result="BackgroundImageFix"/>
<feBlend mode="normal" in="SourceGraphic" in2="BackgroundImageFix" result="shape"/>
<feGaussianBlur stdDeviation="2" result="effect1_foregroundBlur_2573_35673"/>
</filter>
<filter id="filter3_f_2573_35673" x="80" y="50" width="51" height="50" filterUnits="userSpaceOnUse" color-interpolation-filters="sRGB">
<feFlood flood-opacity="0" result="BackgroundImageFix"/>
<feBlend mode="normal" in="SourceGraphic" in2="BackgroundImageFix" result="shape"/>
<feGaussianBlur stdDeviation="2" result="effect1_foregroundBlur_2573_35673"/>
</filter>
<filter id="filter4_f_2573_35673" x="74" y="73" width="39" height="38" filterUnits="userSpaceOnUse" color-interpolation-filters="sRGB">
<feFlood flood-opacity="0" result="BackgroundImageFix"/>
<feBlend mode="normal" in="SourceGraphic" in2="BackgroundImageFix" result="shape"/>
<feGaussianBlur stdDeviation="2" result="effect1_foregroundBlur_2573_35673"/>
</filter>
<filter id="filter5_f_2573_35673" x="71" y="86" width="39" height="38" filterUnits="userSpaceOnUse" color-interpolation-filters="sRGB">
<feFlood flood-opacity="0" result="BackgroundImageFix"/>
<feBlend mode="normal" in="SourceGraphic" in2="BackgroundImageFix" result="shape"/>
<feGaussianBlur stdDeviation="2" result="effect1_foregroundBlur_2573_35673"/>
</filter>
<linearGradient id="paint0_linear_2573_35673" x1="90" y1="1" x2="90" y2="179.229" gradientUnits="userSpaceOnUse">
<stop stop-color="#005AAE" stop-opacity="0.7"/>
<stop offset="0.075" stop-color="#002E60" stop-opacity="0.5"/>
<stop offset="0.235" stop-color="#00151A" stop-opacity="0.1"/>
<stop offset="0.91" stop-color="#004493" stop-opacity="0.4"/>
<stop offset="1" stop-color="#0058FB" stop-opacity="0.7"/>
</linearGradient>
<linearGradient id="paint1_linear_2573_35673" x1="123.158" y1="45.9756" x2="123.158" y2="69.022" gradientUnits="userSpaceOnUse">
<stop stop-color="#70A1F1"/>
<stop offset="0.5" stop-color="#52B9F4"/>
<stop offset="1" stop-color="#16276F"/>
</linearGradient>
<linearGradient id="paint2_linear_2573_35673" x1="79.6026" y1="57.6396" x2="79.6026" y2="135.01" gradientUnits="userSpaceOnUse">
<stop stop-color="#70A1F1"/>
<stop offset="0.5" stop-color="#52B9F4"/>
<stop offset="1" stop-color="#16276F"/>
</linearGradient>
</defs>
</svg>
